<svg width="36" height="34" viewBox="0 0 36 34" fill="none" xmlns="http://www.w3.org/2000/svg">
<path fill-rule="evenodd" clip-rule="evenodd" d="M36 34L0 33.978V34H36Z" fill="#FEFEFE"/>
<path fill-rule="evenodd" clip-rule="evenodd" d="M6.49674 9.46349C7.75808 10.0313 8.15261 11.4427 8.81207 11.9775C10.6378 13.4606 10.1656 12.8569 11.8617 13.841L14.1569 15.2055C14.4334 15.3736 14.73 15.4949 14.9777 15.6438C15.2253 15.7926 15.4471 15.947 15.712 16.1097C16.0115 16.2916 16.2592 16.4101 16.5011 16.5755C16.7257 16.7299 16.7487 17.1296 16.861 17.3942C16.9964 17.7223 17.1605 17.9621 17.2844 18.2598H10.5716C9.62417 18.257 9.62417 18.6568 9.62417 19.4672C9.62705 22.312 9.62417 25.1596 9.62417 28.0044C9.62417 29.0712 9.44274 31.1607 9.89487 31.9767C10.0187 32.2055 10.2347 32.4177 10.4046 32.5583C10.7012 32.8009 10.7991 32.8119 11.1591 32.9056C11.8157 33.0738 12.6191 32.9938 13.3247 32.9966H31.2167C31.9885 32.9966 32.5731 33.0545 33.2325 32.8119C33.6098 32.6741 34.154 32.1531 34.2952 31.69C34.4276 31.2489 34.3355 28.134 34.3355 27.42C34.3355 24.5724 34.347 21.7249 34.3384 18.88C34.3355 18.0779 33.4888 18.2626 32.7458 18.2626C31.8157 18.2626 26.4881 18.3039 26.036 18.2433C26.5831 17.2399 26.9517 16.4046 26.7703 14.9795C26.6263 13.841 26.0792 13.0746 25.5119 12.1953C24.8524 11.1698 24.2505 10.0837 23.617 9.02795C23.496 8.82671 23.3348 8.60343 23.2109 8.39393C22.8078 7.71029 22.7386 7.67721 22.3844 7.1314C21.6731 6.03428 19.617 5.18249 18.2606 5.11082C17.6674 5.07774 16.9561 4.97574 16.3312 4.91785C13.6731 4.667 13.3103 4.61738 11.3722 3.67463C10.9834 3.48442 10.3297 3.16741 9.99278 2.94413C9.91214 2.32389 9.96974 2.0124 9.56369 1.64852C9.25268 1.37011 8.84663 1.17439 8.42906 0.9704C7.51906 0.526587 5.38803 -1.11359 4.42618 1.23779L2.83943 4.06882C2.39883 4.8517 2.02734 5.47469 1.56945 6.30718C1.26996 6.84747 1.15189 6.8585 1.15189 7.61105C1.15189 8.32777 1.17204 8.47111 1.67312 8.85704C1.9899 9.09962 3.56225 9.86595 4.00574 10.092C4.4809 10.3346 4.89847 10.4696 5.50034 10.2712C6.16268 10.0506 6.11949 9.78877 6.49674 9.46349ZM15.9395 9.75569C15.9856 9.95141 17.7019 11.5943 17.9957 11.8728C18.0331 11.9086 18.036 11.9114 18.0763 11.9444C18.1425 11.9968 18.0878 11.961 18.1684 12.0078C18.4967 11.8424 18.6753 11.5392 19.3434 11.2194C19.1908 10.8445 18.6753 10.0948 18.1915 9.83012C17.7278 9.57651 16.4867 9.49933 15.9395 9.75569ZM5.97262 1.33978C5.61553 1.49691 4.35707 4.12395 4.08061 4.62014L2.82503 6.83093C2.65513 7.1314 2.1742 7.74337 2.68104 7.99146C3.02374 8.15962 3.47298 8.43252 3.85887 8.57311C4.10653 8.66408 4.22172 8.70818 4.44058 8.84601C5.27284 9.36977 5.23252 8.90114 6.36427 6.89434L7.91934 4.14049C8.0259 3.94477 8.07485 3.76835 8.20444 3.53955C8.30523 3.36313 8.39451 3.19222 8.5097 2.99375C8.83223 2.43691 8.31387 2.30735 7.2426 1.77257C7.03813 1.67058 6.85959 1.63198 6.63497 1.51621C6.40459 1.39767 6.22316 1.22952 5.97262 1.33978ZM18.9834 13.025C19.1332 13.5322 19.663 14.1414 19.5594 15.4177C19.496 16.1703 19.09 16.7878 18.4046 17.0552L18.2865 17.1048C18.2779 17.1103 18.2606 17.1186 18.2491 17.1241C18.3412 17.4521 18.7732 17.9924 18.969 18.2488L24.0864 18.2653C24.8639 18.2433 25.82 16.2089 25.3765 14.7065C24.7689 12.6556 22.7588 11.6081 20.6076 12.0933C19.9942 12.2311 19.2829 12.6667 18.9834 13.025ZM7.15621 8.34155C7.74944 8.78537 7.65441 8.48765 8.43194 9.32015C8.83511 9.74742 9.06837 10.1802 9.40819 10.6295C10.1598 11.6274 10.9921 11.9499 12.1065 12.482C12.7775 12.8017 14.2664 13.7307 14.9921 14.1635C15.6227 14.5384 17.3938 15.7734 18.0158 15.7816C18.5399 15.3654 18.1252 14.2517 17.9006 13.8189C17.0482 12.1898 13.293 10.2767 14.8625 8.8846C15.5277 8.29745 17.198 8.24783 18.0273 8.43528C19.8646 8.84325 20.1065 10.216 20.717 10.7591C22.1742 10.6295 21.7854 10.6433 23.113 10.8749C22.9345 10.4834 22.635 10.0672 22.4478 9.71158C22.3729 9.56824 22.324 9.40836 22.2433 9.27053C21.9553 8.7771 21.5637 8.16789 21.2008 7.77921C20.334 6.85574 19.0698 6.46982 17.5493 6.30718C15.9078 6.128 13.0396 5.95709 11.6112 5.20178C11.4327 5.10806 11.2916 5.10255 11.1303 5.02812C10.6753 4.82689 9.76528 4.248 9.37939 4.17081L7.712 7.25821C7.57953 7.50079 7.185 8.13756 7.15621 8.34155ZM11.0353 22.097C11.8502 22.097 12.6652 22.097 13.4802 22.097C14.1944 22.0942 15.2858 21.8847 15.2628 22.7338C15.2426 23.5497 14.3815 23.3568 13.4802 23.3568C12.6594 23.3568 11.8387 23.3568 11.018 23.3568C10.9517 24.0735 11.0036 29.2256 11.0036 30.3971C11.0036 31.395 11.0295 31.7368 12.1526 31.7313H31.879C32.982 31.7341 33.0741 31.5191 33.0713 30.4936C33.0713 29.2008 33.1317 24.2251 33.0597 23.3568H21.0741C20.4895 23.3568 20.0317 23.3099 19.9942 22.731C19.9568 22.1714 20.5183 22.0942 21.0223 22.097H26.1713C28.4607 22.0998 30.753 22.097 33.0425 22.097C33.1144 21.7717 33.0972 19.9083 33.0569 19.5251H11.0209C10.9805 19.8669 10.969 21.8186 11.0353 22.097Z" fill="white"/>
<path fill-rule="evenodd" clip-rule="evenodd" d="M14.9431 26.8356V29.0795C14.9431 29.3689 15.041 29.5343 15.1965 29.6777C15.4586 29.912 16.8553 29.8182 17.3016 29.8182H27.5479C29.5003 29.8182 29.1577 29.832 29.1577 26.8356C29.1577 25.0218 29.2498 25.2671 26.2232 25.2698H15.9251C15.4413 25.2698 15.2109 25.2754 15.0237 25.6282C14.8884 25.8873 14.9431 26.502 14.9431 26.8356ZM16.2649 28.5557H27.7869L27.7926 26.5434L16.2707 26.5324L16.2649 28.5557Z" fill="white"/>
<path fill-rule="evenodd" clip-rule="evenodd" d="M17.3477 22.1824C16.5558 22.5573 17.1375 23.5938 17.9381 23.2961C18.7156 23.0067 18.2318 21.7662 17.3477 22.1824Z" fill="white"/>
</svg>
