<svg width="31" height="25" viewBox="0 0 31 25" fill="none" xmlns="http://www.w3.org/2000/svg">
<path d="M2.12677 14.5942C0.963886 14.5942 0.000350952 13.6452 0.000350952 12.4999C0.000350952 11.3547 0.963886 10.4057 2.12677 10.4057H28.8732C30.0361 10.4057 30.9996 11.3547 30.9996 12.4999C30.9996 13.6452 30.0361 14.5942 28.8732 14.5942H2.12677Z" fill="white"/>
<path d="M3.58758 13.9723C2.79018 14.7904 1.42794 14.7904 0.630528 13.9723C-0.200105 13.1543 -0.200105 11.8454 0.630528 11.0273L11.2294 0.588823C12.06 -0.196518 13.3891 -0.196518 14.2197 0.621545C15.0171 1.43961 15.0171 2.74851 14.1865 3.53385L3.58758 13.9723Z" fill="white"/>
<path d="M14.1867 21.4332C15.0174 22.2513 15.0174 23.5602 14.22 24.3783C13.3893 25.1963 12.0603 25.1963 11.2297 24.3783L0.630803 13.9725C-0.199831 13.1545 -0.199831 11.8456 0.630803 11.0275C1.42821 10.2094 2.79045 10.2094 3.58786 11.0275L14.1867 21.4332Z" fill="white"/>
</svg>
