<svg width="28" height="23" viewBox="0 0 28 23" fill="none" xmlns="http://www.w3.org/2000/svg">
<path d="M27.6125 12.5174L18.2787 22.5783C17.4453 23.4765 16.0008 22.8477 16.0008 21.5602V15.8111H8.44486C7.70594 15.8111 7.11146 15.1704 7.11146 14.3739V8.62484C7.11146 7.82836 7.70594 7.18758 8.44486 7.18758H16.0008V1.43853C16.0008 0.156977 17.4398 -0.477813 18.2787 0.420475L27.6125 10.4813C28.1292 11.0442 28.1292 11.9545 27.6125 12.5174ZM10.6672 22.2788V19.8834C10.6672 19.4881 10.3672 19.1648 10.0005 19.1648H5.3336C4.35022 19.1648 3.55573 18.3084 3.55573 17.2484V5.75032C3.55573 4.69034 4.35022 3.83397 5.3336 3.83397H10.0005C10.3672 3.83397 10.6672 3.51059 10.6672 3.11534V0.719904C10.6672 0.324657 10.3672 0.00127369 10.0005 0.00127369H5.3336C2.38901 0.00127369 0 2.57637 0 5.75032V17.2484C0 20.4224 2.38901 22.9975 5.3336 22.9975H10.0005C10.3672 22.9975 10.6672 22.6741 10.6672 22.2788Z" fill="white"/>
</svg>
