<svg width="35" height="23" viewBox="0 0 35 23" fill="none" xmlns="http://www.w3.org/2000/svg">
<path d="M2.14724 4.46602C1.07362 4.46602 0 3.57282 0 2.23301C0 1.1165 1.07362 0 2.14724 0H32.8528C33.9264 0 35 1.1165 35 2.23301C35 3.57282 33.9264 4.46602 32.8528 4.46602H2.14724Z" fill="white"/>
<path d="M2.14724 13.8447C1.07362 13.8447 0 12.7282 0 11.6117C0 10.2719 1.07362 9.37866 2.14724 9.37866H32.8528C33.9264 9.37866 35 10.2719 35 11.6117C35 12.7282 33.9264 13.8447 32.8528 13.8447H2.14724Z" fill="white"/>
<path d="M2.14724 23C1.07362 23 0 22.1068 0 20.767C0 19.6505 1.07362 18.534 2.14724 18.534H32.8528C33.9264 18.534 35 19.6505 35 20.767C35 22.1068 33.9264 23 32.8528 23H2.14724Z" fill="white"/>
</svg>
