<svg width="31" height="26" viewBox="0 0 31 26" fill="none" xmlns="http://www.w3.org/2000/svg">
<g clip-path="url(#clip0_183_5088)">
<path fill-rule="evenodd" clip-rule="evenodd" d="M0.687317 10.9318L24.309 0.151034C24.8552 -0.0989899 25.5092 0.138657 25.7623 0.678312L30.9367 11.7462L30.9467 16.717L10.7704 25.9282L6.50315 25.948L0.153593 12.3675C-0.0994869 11.8279 0.141065 11.1818 0.687317 10.9318ZM20.8961 5.76791C21.9937 5.76791 22.8832 6.6467 22.8832 7.73096C22.8832 8.81522 21.9937 9.69155 20.8961 9.69155C19.8011 9.69155 18.9116 8.81522 18.9116 7.73096C18.9116 6.6467 19.8011 5.76791 20.8961 5.76791ZM25.409 14.0162L18.6836 17.0784V17.0685L10.3971 20.8411L11.4069 12.823L18.8013 16.1352L19.4077 11.3278L25.409 14.0162Z" fill="#4C1F7B" stroke="#4C1F7B" stroke-width="0.199992"/>
</g>
<defs>
<clipPath id="clip0_183_5088">
<rect width="31" height="26" fill="white"/>
</clipPath>
</defs>
</svg>
