<svg width="37" height="36" viewBox="0 0 37 36" fill="none" xmlns="http://www.w3.org/2000/svg">
<path fill-rule="evenodd" clip-rule="evenodd" d="M26.7759 21.5565V28.2509C26.7759 28.9762 26.255 29.2633 25.5918 29.2633H7.74572C7.08256 29.2633 6.51831 28.9762 6.51831 28.2509V21.5565H26.7759ZM18.9523 23.0607C19.1531 23.0607 19.3307 23.1586 19.4556 23.3163C19.5665 23.4561 19.6349 23.6454 19.6349 23.8509C19.6349 24.056 19.5665 24.2454 19.4556 24.3856C19.3307 24.5433 19.1531 24.6407 18.9523 24.6407C18.7516 24.6407 18.574 24.5433 18.4491 24.3856C18.3382 24.2454 18.2694 24.056 18.2694 23.8509C18.2694 23.6454 18.3382 23.4561 18.4491 23.3163C18.574 23.1586 18.7516 23.0607 18.9523 23.0607ZM16.8557 22.2494C17.0564 22.2494 17.234 22.3472 17.3593 22.505C17.4698 22.6447 17.5386 22.834 17.5386 23.0396C17.5386 23.2447 17.4698 23.434 17.3593 23.5742C17.234 23.7319 17.0564 23.8293 16.8557 23.8293C16.655 23.8293 16.4773 23.7319 16.3524 23.5742C16.2416 23.434 16.1731 23.2447 16.1731 23.0396C16.1731 22.834 16.2416 22.6447 16.3524 22.505C16.4773 22.3472 16.655 22.2494 16.8557 22.2494ZM14.7149 23.0337C14.9156 23.0337 15.0933 23.1315 15.2182 23.2893C15.329 23.429 15.3975 23.6183 15.3975 23.8239C15.3975 24.029 15.329 24.2183 15.2182 24.3585C15.0933 24.5163 14.9156 24.6136 14.7149 24.6136C14.5138 24.6136 14.3362 24.5163 14.2113 24.3585C14.1004 24.2183 14.032 24.029 14.032 23.8239C14.032 23.6183 14.1004 23.429 14.2113 23.2893C14.3362 23.1315 14.5138 23.0337 14.7149 23.0337ZM17.403 27.2957C17.2538 27.2903 17.0956 27.2849 16.8969 27.2849C16.7127 27.2849 16.5964 27.2871 16.4843 27.2894C16.3318 27.2925 16.183 27.2957 16.1076 27.2957C15.3163 27.2957 14.7269 27.1934 14.7269 26.4514C14.7269 26.0029 14.9993 25.5156 15.4222 25.1564L15.4226 25.1573C15.8067 24.8305 16.319 24.6037 16.8639 24.6037C17.4055 24.6037 17.9046 24.8381 18.2789 25.1721C18.6964 25.5454 18.9622 26.0502 18.9622 26.4987C18.9622 27.1893 18.5051 27.3061 17.823 27.3061C17.715 27.3061 17.5629 27.3011 17.403 27.2957Z" fill="white"/>
<path d="M10.5427 16.7757C10.4648 16.7748 10.4165 16.9457 10.3654 16.8889C10.3065 16.8226 10.2706 17.043 10.2846 16.8393C10.295 16.6923 10.3217 16.4935 10.3691 16.2673C10.5225 15.537 10.8967 14.5219 11.6444 14.0269L11.6472 14.0211C11.7037 13.9129 11.8224 13.8674 11.9329 13.889H11.9341C11.9856 13.8994 12.0421 13.9273 12.0845 13.9733C12.5511 14.1933 13.2505 14.4151 14.0666 14.5805C14.8135 14.7319 15.6534 14.8352 16.4959 14.8464C17.0127 14.8532 17.5255 14.8189 18.0143 14.7572C18.5699 14.6869 19.0974 14.58 19.5665 14.4579L19.576 14.4552C20.0648 14.3276 20.4955 14.2149 20.77 14.0405L20.7692 14.0396C20.7671 14.0405 20.7659 14.0409 20.7683 14.0387C20.8945 13.9296 21.2192 13.6474 21.5593 13.9251C21.8515 14.1635 22.513 15.2282 22.8514 16.0626C22.9565 16.3213 23.0332 16.5643 23.0624 16.7626C23.1564 16.8911 23.022 16.7144 22.851 16.8307C22.7797 16.8789 22.7166 16.8569 22.6165 16.8564L10.5427 16.7757ZM10.8604 16.3651C10.8192 16.5612 10.8604 16.476 10.851 16.6067L22.6602 16.6856C22.654 16.6671 22.574 16.8902 22.5654 16.8316C22.5423 16.6756 22.4759 16.4705 22.3836 16.2429C22.0695 15.4676 21.4838 14.5021 21.237 14.3006C21.2295 14.2947 21.138 14.374 21.1026 14.4047C21.0824 14.4223 21.0676 14.4349 21.0432 14.4507C20.7003 14.6688 20.2346 14.7905 19.7058 14.9285L19.6959 14.9312C19.2133 15.0574 18.6639 15.1678 18.0769 15.2422C17.5671 15.3067 17.0313 15.3423 16.4901 15.3351C15.6106 15.3238 14.738 15.2165 13.9648 15.0597C13.1372 14.892 12.4172 14.6661 11.9176 14.438C11.3105 14.8437 10.9948 15.7254 10.8604 16.3651ZM20.77 14.0405C20.7786 14.0351 20.7729 14.0382 20.7692 14.0396L20.77 14.0405Z" fill="white"/>
<path d="M5.6713 21.2388H27.5236C27.526 21.2388 27.5302 21.2379 27.5343 21.236C27.5483 21.2311 27.5611 21.2239 27.5718 21.2144L26.025 17.2085C25.9949 17.1314 25.9648 17.0552 25.9351 17.0119H7.2136C7.1831 17.0556 7.15383 17.1291 7.12539 17.2053L5.62266 21.214C5.63338 21.2239 5.64657 21.2315 5.66058 21.2365C5.6647 21.2379 5.66841 21.2388 5.6713 21.2388ZM27.5236 21.8275H5.6713C5.59999 21.8275 5.52622 21.8135 5.45532 21.7882C5.34445 21.749 5.23853 21.6787 5.16022 21.5908C5.06996 21.4889 5.01184 21.3618 5.01184 21.2225C5.01184 21.1653 5.02256 21.1058 5.04481 21.0454L6.5595 17.0052C6.6036 16.8871 6.65141 16.769 6.7256 16.6675C6.83359 16.5206 6.9766 16.4232 7.18598 16.4232H25.9636C26.1733 16.4232 26.3155 16.5206 26.4227 16.668C26.4977 16.7703 26.5439 16.8862 26.5888 17.0016L28.1488 21.0422C28.1723 21.1035 28.1834 21.1644 28.1834 21.2234C28.1834 21.3623 28.1262 21.4885 28.0375 21.5894H28.0363C27.9592 21.6764 27.8554 21.7459 27.7466 21.786C27.6736 21.8126 27.5974 21.8275 27.5236 21.8275ZM27.58 21.2063L27.5805 21.2058L27.58 21.2054V21.2063Z" fill="white"/>
<path d="M7.82115 18.7884C7.63568 18.7884 7.48566 18.6419 7.48566 18.4611C7.48566 18.2808 7.63568 18.1343 7.82115 18.1343H12.0808C12.2659 18.1343 12.4163 18.2808 12.4163 18.4611C12.4163 18.6419 12.2659 18.7884 12.0808 18.7884H7.82115Z" fill="white"/>
<path d="M13.3231 18.7659C13.138 18.7659 12.9876 18.6194 12.9876 18.4386C12.9876 18.2578 13.138 18.1113 13.3231 18.1113H14.2488C14.4343 18.1113 14.5843 18.2578 14.5843 18.4386C14.5843 18.6194 14.4343 18.7659 14.2488 18.7659H13.3231Z" fill="white"/>
<path d="M16.5573 1.50601C17.8816 1.50601 19.0208 1.85581 20.0203 2.41295C21.0103 2.96514 21.8585 3.71882 22.6111 4.53471C23.224 5.19914 23.7182 5.90098 24.0607 6.65151C24.4065 7.4088 24.5961 8.21161 24.5961 9.07032C24.5961 10.9771 23.7816 12.539 22.3712 13.6294C20.9555 14.7238 18.9421 15.3364 16.5573 15.3364C14.1511 15.3364 12.1237 14.7766 10.7067 13.7249C9.3202 12.6958 8.5202 11.2047 8.5202 9.31418C8.5202 8.54202 8.69578 7.7951 9.00119 7.08064C9.33669 6.2954 9.82922 5.55119 10.4165 4.85746C11.1712 3.96629 12.0104 3.13328 13.0066 2.51933C14.0135 1.89908 15.1737 1.50601 16.5573 1.50601ZM19.7709 2.83848C18.8431 2.32145 17.786 1.99645 16.5573 1.99645C15.2776 1.99645 14.2047 2.36021 13.274 2.93359C12.3327 3.51372 11.5298 4.31203 10.8036 5.16984C10.2459 5.82886 9.77976 6.5316 9.46487 7.26861C9.1846 7.92447 9.02345 8.60874 9.02345 9.31418C9.02345 11.0411 9.7505 12.4001 11.0113 13.3359C12.3389 14.3208 14.2608 14.8455 16.5573 14.8455C18.8275 14.8455 20.7321 14.2717 22.0588 13.2458C23.3481 12.2491 24.0932 10.8184 24.0932 9.07032C24.0932 8.28103 23.9193 7.54403 23.6028 6.8512C23.2838 6.15116 22.8176 5.49124 22.2377 4.86242C21.5168 4.08124 20.7082 3.36137 19.7709 2.83848Z" fill="white"/>
<path d="M16.5898 5.34609C17.4133 5.34609 17.4558 5.90414 17.5118 6.64385C17.5197 6.74392 17.5271 6.84444 17.5308 6.88321C17.56 7.20415 17.6223 7.5571 17.7237 7.88571C17.8069 8.15662 17.9157 8.40544 18.0522 8.59747C18.2566 8.88596 18.7425 9.00046 19.2074 9.11044C19.9378 9.28309 20.6286 9.44581 20.6286 10.2139C20.6286 11.4341 20.223 12.438 19.5211 13.143C18.8064 13.8602 17.7917 14.2618 16.5898 14.2618C15.3797 14.2618 14.3584 13.8944 13.6429 13.2052C12.9513 12.5385 12.5523 11.5788 12.5523 10.3676C12.5523 9.6464 13.1986 9.42958 13.8774 9.20195C14.311 9.05635 14.7619 8.90534 14.9498 8.61685C15.106 8.37705 15.254 8.0872 15.3707 7.78474C15.4799 7.50346 15.5619 7.21227 15.599 6.94316C15.6167 6.81559 15.6283 6.69524 15.6398 6.58119C15.709 5.87304 15.761 5.34609 16.5898 5.34609ZM17.0106 6.67811C16.9744 6.19849 16.9468 5.83653 16.5898 5.83653C16.2164 5.83653 16.1834 6.1737 16.1389 6.62717C16.1266 6.74978 16.1142 6.87915 16.0961 7.00807C16.0536 7.31639 15.9617 7.6441 15.8405 7.95738C15.7107 8.2932 15.5471 8.6146 15.3744 8.87965C15.0916 9.31329 14.5558 9.49269 14.0406 9.66579C13.5357 9.83482 13.0556 9.9962 13.0556 10.3676C13.0556 11.4414 13.3989 12.282 13.9949 12.8563C14.6139 13.4531 15.5133 13.7714 16.5898 13.7714C17.652 13.7714 18.5422 13.4234 19.1613 12.8018C19.7721 12.1883 20.1253 11.3021 20.1253 10.2139C20.1253 9.83032 19.6221 9.71131 19.0896 9.58555C18.5336 9.45438 17.9532 9.31734 17.6392 8.87559C17.4702 8.63714 17.3391 8.34098 17.2423 8.0259C17.1322 7.66889 17.0638 7.28078 17.0317 6.92558C17.0197 6.79756 17.0152 6.73581 17.0106 6.67811Z" fill="white"/>
<path d="M9.89924 0.237106C11.0978 0.237106 12.0767 1.06471 13.0671 1.90179C13.2258 2.03566 13.3845 2.16999 13.5654 2.31784L13.5765 2.32506C13.6404 2.36608 13.7084 2.4098 13.7348 2.51167C13.7748 2.66538 13.7224 2.77357 13.544 2.81684C13.3486 2.86507 12.3001 3.48172 11.2285 4.63974C10.6057 5.31274 9.98662 6.16333 9.54273 7.18251C9.52088 7.233 9.4875 7.27177 9.44422 7.29971L9.44463 7.30061C9.27111 7.41331 9.14705 7.36417 9.06627 7.18882C9.05473 7.16403 9.04649 7.13473 9.0403 7.10273C9.02629 7.03106 9.01887 6.9089 9.01887 6.82911C9.01887 6.51763 8.98878 6.05695 8.95375 5.52234C8.9047 4.76596 8.84576 3.86532 8.84576 3.04132H8.847C8.847 1.53351 9.06009 0.237106 9.89924 0.237106ZM12.739 2.27187C11.8203 1.49565 10.9123 0.727991 9.89924 0.727991C9.45988 0.727991 9.34819 1.79721 9.34819 3.04132H9.34901C9.34901 3.86442 9.40671 4.74883 9.45494 5.49169C9.4706 5.7306 9.48544 5.95553 9.49698 6.15837C9.9013 5.44436 10.3773 4.82816 10.855 4.31203C11.688 3.41185 12.5453 2.80873 13.0395 2.5252C12.9418 2.44316 12.8404 2.35751 12.739 2.27187Z" fill="white"/>
<path d="M23.2982 0.490884C22.2851 0.490884 21.3767 1.25854 20.4584 2.03476C20.3088 2.16097 20.1588 2.28809 20.0211 2.40123C20.5099 2.67575 21.3734 3.26806 22.2344 4.14705C22.7409 4.66453 23.2524 5.28343 23.6959 5.99925C23.7083 5.77612 23.7248 5.52459 23.7421 5.25458C23.7907 4.51172 23.8484 3.62687 23.8484 2.80377H23.8492C23.8492 1.5601 23.7375 0.490884 23.2982 0.490884ZM20.1303 1.66468C21.1203 0.827607 22.0996 0 23.2982 0C24.1373 0 24.3504 1.2964 24.3504 2.80377H24.3512C24.3512 3.62777 24.2927 4.52885 24.2433 5.28523C24.2086 5.81984 24.1785 6.28053 24.1785 6.59201C24.1785 6.66999 24.1724 6.78989 24.1588 6.86337C24.1526 6.89582 24.1435 6.92647 24.132 6.95172L24.1324 6.95217C24.0549 7.11805 23.9337 7.16763 23.7647 7.06982L23.7651 7.06937C23.7202 7.04322 23.6852 7.00626 23.6605 6.95668H23.6596C23.165 5.96905 22.5134 5.14099 21.8709 4.48422C20.7708 3.36091 19.7293 2.75238 19.5339 2.7046C19.1621 2.61399 19.2738 2.39853 19.4989 2.19388C19.5558 2.14294 19.6168 2.09291 19.6316 2.08074C19.8125 1.93289 19.9716 1.79856 20.1303 1.66468Z" fill="white"/>
<path d="M10.506 1.93559C11.001 1.76791 11.8274 2.44451 12.4332 2.9408L12.5264 3.01698C12.5824 3.04583 12.629 3.07693 12.655 3.17655H12.6546C12.6945 3.32846 12.6438 3.43394 12.467 3.47721C12.4011 3.49344 12.0404 3.80492 11.564 4.29535C11.2557 4.61269 10.9136 4.99855 10.5909 5.42137C10.5579 5.50431 10.4944 5.57824 10.4503 5.6179C10.4376 5.62917 10.4231 5.64044 10.4091 5.65036C10.1152 5.85906 9.96357 5.78198 10.0069 5.42588H10.0073C10.0126 5.38125 10.0279 5.34519 10.053 5.31003L10.1091 5.23475C10.1074 5.09321 10.1033 4.9413 10.0984 4.77001C10.0687 3.73731 10.0221 2.09967 10.506 1.93559ZM11.2005 3.95818C13.8346 1.24592 9.35523 5.85816 11.2005 3.95818V3.95818ZM12.5165 3.01202L12.514 3.00977L12.5136 3.01067L12.5165 3.01202Z" fill="white"/>
<path d="M20.7996 2.9408C21.4059 2.44451 22.2323 1.76791 22.7269 1.93559C23.2112 2.09967 23.1642 3.73731 23.1349 4.77001C23.13 4.9413 23.1254 5.09321 23.1242 5.23475L23.1803 5.31003C23.205 5.34474 23.2206 5.3808 23.2256 5.42588H23.2264C23.2697 5.78108 23.1172 5.85816 22.8237 5.64991C22.8101 5.64044 22.7953 5.62917 22.7829 5.6179C22.7388 5.57823 22.675 5.50431 22.6424 5.42137C22.3197 4.99855 21.9772 4.61269 21.6689 4.29535C21.1928 3.80492 20.8322 3.49344 20.7662 3.47721C20.5882 3.43394 20.5383 3.32936 20.5787 3.17655H20.5783C20.6039 3.07738 20.6504 3.04583 20.7069 3.01698L20.7996 2.9408ZM20.7197 3.01067L20.7193 3.00977L20.7168 3.01202L20.7197 3.01067Z" fill="white"/>
<path d="M19.3138 6.70695C19.4552 6.51718 19.6522 6.39953 19.8702 6.39953C20.0883 6.39953 20.2849 6.51718 20.4266 6.70695C20.566 6.89357 20.6525 7.15141 20.6525 7.43494C20.6525 7.71892 20.566 7.97676 20.4266 8.16338C20.2849 8.35315 20.0883 8.4708 19.8702 8.4708C19.6522 8.4708 19.4552 8.35315 19.3138 8.16338C19.1741 7.97676 19.088 7.71892 19.088 7.43494C19.088 7.15141 19.1741 6.89357 19.3138 6.70695Z" fill="white"/>
<path d="M19.3348 6.9711C19.3826 6.90664 19.4498 6.86697 19.5248 6.86697C19.5994 6.86697 19.6666 6.90664 19.7148 6.9711C19.7606 7.03195 19.7886 7.11625 19.7886 7.20865C19.7886 7.30061 19.7606 7.3849 19.7148 7.44576C19.6666 7.51022 19.5998 7.54988 19.5248 7.54988C19.4498 7.54988 19.3826 7.51022 19.3348 7.44576C19.2891 7.3849 19.2606 7.30061 19.2606 7.20865C19.2606 7.11625 19.2891 7.03195 19.3348 6.9711Z" fill="#FEFEFE"/>
<path d="M16.6055 9.64595C16.7275 9.64595 16.7963 9.64414 16.861 9.64234C16.9542 9.64009 17.0436 9.63783 17.077 9.63783C17.4982 9.63783 17.7805 9.70455 17.7805 10.0994C17.7805 10.3262 17.619 10.57 17.3655 10.7413C17.1586 10.881 16.8841 10.9789 16.5886 10.9789C16.2931 10.9789 16.0128 10.8842 15.8009 10.7481C15.5433 10.5831 15.3768 10.346 15.3768 10.1174C15.3768 9.69959 15.7301 9.64189 16.2036 9.64189L16.3957 9.64459C16.4336 9.6455 16.4752 9.64595 16.6055 9.64595Z" fill="white"/>
<path d="M17.3672 9.86592C17.4166 9.86592 17.4616 9.88711 17.4941 9.92182C17.5259 9.95562 17.5457 10.0021 17.5457 10.0525C17.5457 10.1035 17.5259 10.1499 17.4941 10.1837C17.4616 10.2184 17.4166 10.2396 17.3672 10.2396C17.3173 10.2396 17.2724 10.2184 17.2402 10.1837C17.2085 10.1499 17.1887 10.1035 17.1887 10.0525C17.1887 10.0021 17.2085 9.95562 17.2402 9.92182C17.2724 9.88711 17.3173 9.86592 17.3672 9.86592Z" fill="#FEFEFE"/>
<path d="M16.3389 10.7125C16.3508 10.5781 16.4724 10.4785 16.6101 10.4902C16.7481 10.502 16.8504 10.6201 16.838 10.7548C16.8071 11.0925 16.8574 11.3368 16.9571 11.504C17.0342 11.6329 17.1446 11.7159 17.2695 11.7605C17.4035 11.8087 17.5556 11.815 17.7048 11.7889C17.9211 11.7506 18.126 11.6464 18.2595 11.5013C18.3518 11.4008 18.5101 11.3922 18.6132 11.4819C18.7166 11.5721 18.7253 11.7262 18.6329 11.8268C18.4252 12.0526 18.1157 12.2131 17.793 12.2699C17.5597 12.3109 17.3165 12.2992 17.0964 12.2207C16.8672 12.1387 16.6645 11.9863 16.5227 11.7492C16.3743 11.5009 16.2981 11.1605 16.3389 10.7125Z" fill="white"/>
<path d="M16.3083 10.7548C16.2964 10.6201 16.3986 10.502 16.5363 10.4902C16.6739 10.4785 16.7955 10.5781 16.8075 10.7125C16.8487 11.1605 16.772 11.5009 16.6236 11.7492C16.4823 11.9863 16.2795 12.1387 16.0499 12.2207C15.8302 12.2992 15.587 12.3109 15.3534 12.2699C15.031 12.2131 14.7211 12.0526 14.5134 11.8268C14.4215 11.7262 14.4301 11.5721 14.5332 11.4819C14.6362 11.3922 14.7945 11.4008 14.8868 11.5013C15.0203 11.6464 15.2252 11.7506 15.442 11.7889C15.5908 11.815 15.7428 11.8087 15.8772 11.7605C16.0017 11.7159 16.1121 11.6329 16.1892 11.504C16.289 11.3368 16.3392 11.0925 16.3083 10.7548Z" fill="white"/>
<path fill-rule="evenodd" clip-rule="evenodd" d="M5.22617 3.45061C5.37661 4.12451 5.77393 4.58114 6.51623 4.7362C5.86708 4.87504 5.41205 5.27937 5.1899 6.0024C5.02669 5.34879 4.60876 4.9102 3.89984 4.71637C4.60793 4.5595 5.04194 4.12947 5.22617 3.45061Z" fill="white"/>
<path fill-rule="evenodd" clip-rule="evenodd" d="M27.7886 13.3851C27.89 13.8394 28.1579 14.1478 28.6583 14.2519C28.221 14.3456 27.9139 14.6184 27.7643 15.1056C27.6539 14.6652 27.3723 14.3691 26.8947 14.2388C27.3719 14.1329 27.6646 13.843 27.7886 13.3851Z" fill="white"/>
<path d="M26.8485 11.5779C27.4203 11.5779 27.8838 11.1259 27.8838 10.5682C27.8838 10.0106 27.4203 9.5585 26.8485 9.5585C26.2766 9.5585 25.8131 10.0106 25.8131 10.5682C25.8131 11.1259 26.2766 11.5779 26.8485 11.5779Z" fill="white"/>
<path d="M6.30399 11.2894C6.58989 11.2894 6.82166 11.0634 6.82166 10.7846C6.82166 10.5058 6.58989 10.2797 6.30399 10.2797C6.01809 10.2797 5.78632 10.5058 5.78632 10.7846C5.78632 11.0634 6.01809 11.2894 6.30399 11.2894Z" fill="white"/>
<path d="M6.30399 10.2468C6.45649 10.2468 6.59415 10.3072 6.69389 10.4041C6.79363 10.5015 6.85545 10.6363 6.85545 10.7846C6.85545 10.9329 6.79363 11.0672 6.69389 11.1646C6.59415 11.2619 6.45649 11.3219 6.30399 11.3219C6.1519 11.3219 6.01424 11.2619 5.9145 11.1646C5.81475 11.0672 5.75293 10.9329 5.75293 10.7846C5.75293 10.6363 5.81475 10.5015 5.9145 10.4041C6.01424 10.3072 6.1519 10.2468 6.30399 10.2468ZM6.64649 10.4506C6.5587 10.3654 6.43794 10.3122 6.30399 10.3122C6.17045 10.3122 6.04927 10.3654 5.96189 10.4506C5.8741 10.5362 5.82011 10.6543 5.82011 10.7846C5.82011 10.9149 5.8741 11.033 5.96189 11.1181C6.04927 11.2038 6.17045 11.2565 6.30399 11.2565C6.43794 11.2565 6.5587 11.2038 6.64649 11.1181C6.73387 11.033 6.78827 10.9149 6.78827 10.7846C6.78827 10.6543 6.73387 10.5362 6.64649 10.4506Z" fill="white"/>
<path d="M1.64946 32.8253H0.861001V34.141C0.861001 34.329 0.820197 34.471 0.739002 34.5684C0.657806 34.6657 0.555179 34.7144 0.432355 34.7144C0.302937 34.7144 0.197836 34.6666 0.118702 34.5706C0.0395673 34.4742 0 34.3326 0 34.1474V30.5647C0 30.3578 0.0436889 30.2095 0.130654 30.1207C0.21762 30.0323 0.355281 29.9877 0.545287 29.9877H1.64946C1.97589 29.9877 2.22731 30.0147 2.4033 30.0702C2.57764 30.1229 2.72808 30.2108 2.85462 30.333C2.98115 30.4565 3.07718 30.6057 3.1423 30.7833C3.20866 30.9604 3.24122 31.161 3.24122 31.3828C3.24122 31.8566 3.10768 32.2149 2.84184 32.4592C2.57435 32.7026 2.17785 32.8253 1.64946 32.8253ZM1.4405 30.6954H0.861001V32.1176H1.4405C1.64369 32.1176 1.8135 32.0937 1.95034 32.0472C2.08553 32.0004 2.1898 31.9246 2.26193 31.8187C2.33323 31.7137 2.36868 31.5739 2.36868 31.4031C2.36868 31.1975 2.31345 31.0308 2.2034 30.9023C2.07976 30.7648 1.82545 30.6954 1.4405 30.6954ZM5.67956 34.2285C5.48749 34.3908 5.30243 34.512 5.12438 34.5932C4.94509 34.6743 4.74437 34.7144 4.52262 34.7144C4.31984 34.7144 4.14096 34.6702 3.98764 34.5823C3.83391 34.4949 3.7152 34.3768 3.63236 34.2262C3.5491 34.0761 3.50748 33.9139 3.50748 33.7385C3.50748 33.5014 3.57589 33.3004 3.71356 33.1336C3.8508 32.9659 4.03999 32.8541 4.28027 32.7969C4.32973 32.7838 4.45462 32.7558 4.65328 32.7117C4.85235 32.667 5.0234 32.6269 5.16477 32.5891C5.30655 32.5525 5.4607 32.5079 5.6268 32.4552C5.61691 32.2266 5.57569 32.059 5.5015 31.953C5.42608 31.8457 5.27275 31.7925 5.03824 31.7925C4.83751 31.7925 4.68584 31.8232 4.58527 31.8845C4.48306 31.9454 4.39609 32.0373 4.32396 32.1608C4.25184 32.283 4.20032 32.3632 4.17064 32.4029C4.13973 32.4421 4.07543 32.4615 3.97775 32.4615C3.88872 32.4615 3.81124 32.4299 3.74694 32.3673C3.68264 32.3055 3.65008 32.2257 3.65008 32.1284C3.65008 31.9756 3.69954 31.8273 3.79764 31.6835C3.89655 31.5397 4.04988 31.4216 4.25843 31.3287C4.46739 31.2354 4.72747 31.189 5.03947 31.189C5.38651 31.189 5.6606 31.2345 5.85967 31.3242C6.05833 31.4139 6.19888 31.5559 6.2809 31.7506C6.36333 31.9454 6.40454 32.2027 6.40454 32.5241C6.40454 32.7279 6.40372 32.8996 6.40289 33.0416C6.40166 33.1832 6.40083 33.3414 6.39877 33.5145C6.39877 33.6768 6.4235 33.8467 6.47296 34.0229C6.52242 34.1983 6.54633 34.3119 6.54633 34.3628C6.54633 34.4516 6.50841 34.5328 6.43216 34.6053C6.35508 34.6779 6.26894 34.7144 6.17209 34.7144C6.09089 34.7144 6.01093 34.6734 5.9318 34.59C5.85266 34.5066 5.76858 34.3867 5.67956 34.2285ZM5.6268 32.9745C5.51139 33.0209 5.34323 33.0705 5.12149 33.1214C4.90057 33.1737 4.74725 33.2125 4.66235 33.2364C4.57703 33.2611 4.49625 33.3089 4.41876 33.3792C4.34169 33.4505 4.30294 33.5492 4.30294 33.6768C4.30294 33.8075 4.34869 33.9193 4.43978 34.0112C4.52963 34.1032 4.64833 34.1496 4.79589 34.1496C4.95209 34.1496 5.09676 34.1117 5.22824 34.0369C5.36096 33.9612 5.45781 33.8652 5.52005 33.7462C5.59135 33.615 5.6268 33.3986 5.6268 33.098V32.9745ZM7.99053 33.4658V34.1884C7.99053 34.3637 7.95303 34.4949 7.87801 34.5823C7.80259 34.6702 7.70779 34.7144 7.59197 34.7144C7.47822 34.7144 7.38425 34.6702 7.31088 34.5814C7.23793 34.4926 7.20125 34.3619 7.20125 34.1884V31.7786C7.20125 31.39 7.32984 31.1953 7.5862 31.1953C7.71686 31.1953 7.81166 31.2408 7.86895 31.3319C7.92747 31.4225 7.95921 31.5582 7.96498 31.7353C8.05895 31.5582 8.15581 31.4225 8.25596 31.3319C8.35571 31.2408 8.48842 31.1953 8.65452 31.1953C8.82103 31.1953 8.98219 31.2408 9.1384 31.3319C9.29502 31.4225 9.37292 31.5437 9.37292 31.6943C9.37292 31.8002 9.34035 31.8868 9.27317 31.9562C9.20681 32.0256 9.13469 32.059 9.0572 32.059C9.02876 32.059 8.95828 32.0396 8.84741 32.0004C8.73572 31.9616 8.63803 31.9422 8.55272 31.9422C8.4369 31.9422 8.34293 31.9756 8.26874 32.0418C8.19538 32.1085 8.13809 32.2073 8.09769 32.338C8.05689 32.4692 8.02928 32.6251 8.01361 32.8054C7.99878 32.9862 7.99053 33.2062 7.99053 33.4658ZM11.6596 34.2285C11.4675 34.3908 11.2824 34.512 11.1044 34.5932C10.9255 34.6743 10.7244 34.7144 10.5031 34.7144C10.2999 34.7144 10.121 34.6702 9.96766 34.5823C9.81434 34.4949 9.69564 34.3768 9.61238 34.2262C9.52912 34.0761 9.48791 33.9139 9.48791 33.7385C9.48791 33.5014 9.55591 33.3004 9.69357 33.1336C9.83082 32.9659 10.02 32.8541 10.2603 32.7969C10.3098 32.7838 10.4346 32.7558 10.6333 32.7117C10.8324 32.667 11.0034 32.6269 11.1452 32.5891C11.2866 32.5525 11.4407 32.5079 11.6072 32.4552C11.5973 32.2266 11.5557 32.059 11.4815 31.953C11.4061 31.8457 11.2528 31.7925 11.0183 31.7925C10.8175 31.7925 10.6663 31.8232 10.5653 31.8845C10.4635 31.9454 10.3761 32.0373 10.304 32.1608C10.2319 32.283 10.1803 32.3632 10.1507 32.4029C10.1202 32.4421 10.0555 32.4615 9.95777 32.4615C9.86874 32.4615 9.79167 32.4299 9.72737 32.3673C9.66266 32.3055 9.6301 32.2257 9.6301 32.1284C9.6301 31.9756 9.67956 31.8273 9.77766 31.6835C9.87657 31.5397 10.0299 31.4216 10.2389 31.3287C10.4474 31.2354 10.7079 31.189 11.0195 31.189C11.3665 31.189 11.6406 31.2345 11.8397 31.3242C12.0383 31.4139 12.1789 31.5559 12.2609 31.7506C12.3433 31.9454 12.3846 32.2027 12.3846 32.5241C12.3846 32.7279 12.3837 32.8996 12.3829 33.0416C12.3817 33.1832 12.3809 33.3414 12.3788 33.5145C12.3788 33.6768 12.4035 33.8467 12.453 34.0229C12.5024 34.1983 12.5263 34.3119 12.5263 34.3628C12.5263 34.4516 12.4888 34.5328 12.4126 34.6053C12.3355 34.6779 12.2494 34.7144 12.1521 34.7144C12.0713 34.7144 11.991 34.6734 11.9118 34.59C11.8327 34.5066 11.7486 34.3867 11.6596 34.2285ZM11.6072 32.9745C11.4914 33.0209 11.3233 33.0705 11.1015 33.1214C10.881 33.1737 10.7277 33.2125 10.6424 33.2364C10.5575 33.2611 10.4763 33.3089 10.3992 33.3792C10.3217 33.4505 10.2834 33.5492 10.2834 33.6768C10.2834 33.8075 10.3287 33.9193 10.4198 34.0112C10.5097 34.1032 10.6284 34.1496 10.7759 34.1496C10.9321 34.1496 11.0768 34.1117 11.2083 34.0369C11.341 33.9612 11.4378 33.8652 11.5001 33.7462C11.5714 33.615 11.6072 33.3986 11.6072 33.098V32.9745ZM16.671 34.2285C16.479 34.3908 16.2939 34.512 16.1158 34.5932C15.937 34.6743 15.7358 34.7144 15.5145 34.7144C15.3117 34.7144 15.1324 34.6702 14.9791 34.5823C14.8258 34.4949 14.7071 34.3768 14.6238 34.2262C14.5406 34.0761 14.4994 33.9139 14.4994 33.7385C14.4994 33.5014 14.5674 33.3004 14.705 33.1336C14.8427 32.9659 15.0315 32.8541 15.2722 32.7969C15.3212 32.7838 15.4461 32.7558 15.6452 32.7117C15.8438 32.667 16.0149 32.6269 16.1566 32.5891C16.298 32.5525 16.4522 32.5079 16.6187 32.4552C16.6088 32.2266 16.5672 32.059 16.493 31.953C16.4175 31.8457 16.2642 31.7925 16.0297 31.7925C15.829 31.7925 15.6777 31.8232 15.5767 31.8845C15.4749 31.9454 15.388 32.0373 15.3154 32.1608C15.2433 32.283 15.1918 32.3632 15.1621 32.4029C15.1316 32.4421 15.0669 32.4615 14.9692 32.4615C14.8802 32.4615 14.8031 32.4299 14.7388 32.3673C14.6745 32.3055 14.6415 32.2257 14.6415 32.1284C14.6415 31.9756 14.691 31.8273 14.7891 31.6835C14.888 31.5397 15.0413 31.4216 15.2503 31.3287C15.4589 31.2354 15.7193 31.189 16.0309 31.189C16.378 31.189 16.6525 31.2345 16.8511 31.3242C17.0498 31.4139 17.1903 31.5559 17.2724 31.7506C17.3548 31.9454 17.3964 32.2027 17.3964 32.5241C17.3964 32.7279 17.3952 32.8996 17.3944 33.0416C17.3935 33.1832 17.3923 33.3414 17.3902 33.5145C17.3902 33.6768 17.415 33.8467 17.4644 34.0229C17.5139 34.1983 17.5378 34.3119 17.5378 34.3628C17.5378 34.4516 17.5003 34.5328 17.424 34.6053C17.347 34.6779 17.2608 34.7144 17.164 34.7144C17.0828 34.7144 17.0024 34.6734 16.9233 34.59C16.8441 34.5066 16.76 34.3867 16.671 34.2285ZM16.6187 32.9745C16.5029 33.0209 16.3347 33.0705 16.113 33.1214C15.8925 33.1737 15.7391 33.2125 15.6538 33.2364C15.5689 33.2611 15.4877 33.3089 15.4106 33.3792C15.3332 33.4505 15.2948 33.5492 15.2948 33.6768C15.2948 33.8075 15.3402 33.9193 15.4312 34.0112C15.5215 34.1032 15.6402 34.1496 15.7873 34.1496C15.944 34.1496 16.0882 34.1117 16.2197 34.0369C16.3524 33.9612 16.4493 33.8652 16.5119 33.7462C16.5828 33.615 16.6187 33.3986 16.6187 33.098V32.9745ZM20.3656 34.2199V34.1343C20.2597 34.2677 20.155 34.3759 20.0507 34.4593C19.9481 34.5422 19.8352 34.6062 19.7144 34.6495C19.5936 34.6928 19.4622 34.7144 19.3187 34.7144C19.13 34.7144 18.9548 34.6702 18.7932 34.5823C18.6321 34.4949 18.4915 34.3705 18.3741 34.2069C18.2562 34.0446 18.1672 33.853 18.1057 33.6335C18.0452 33.4135 18.0147 33.1755 18.0147 32.9204C18.0147 32.3794 18.1354 31.9571 18.3769 31.6555C18.6181 31.3535 18.9367 31.202 19.3307 31.202C19.559 31.202 19.7511 31.2453 19.9073 31.3305C20.0639 31.4162 20.2172 31.5482 20.3656 31.7267V30.4488C20.3656 30.2712 20.3982 30.1369 20.4625 30.0463C20.528 29.9552 20.6199 29.9097 20.7394 29.9097C20.8594 29.9097 20.9513 29.9521 21.0168 30.0355C21.0811 30.1189 21.1137 30.2419 21.1137 30.4042V34.2199C21.1137 34.3845 21.0791 34.5089 21.0098 34.5909C20.9393 34.6734 20.8495 34.7144 20.7394 34.7144C20.6319 34.7144 20.5416 34.6711 20.4715 34.5855C20.4011 34.5003 20.3656 34.3777 20.3656 34.2199ZM18.8101 32.9497C18.8101 33.1845 18.8439 33.3833 18.9103 33.5492C18.9762 33.7137 19.0673 33.8368 19.1844 33.9202C19.2998 34.0036 19.4267 34.0455 19.5631 34.0455C19.7029 34.0455 19.8294 34.0058 19.944 33.9265C20.059 33.8476 20.1509 33.7263 20.2193 33.5632C20.2873 33.3986 20.3219 33.1953 20.3219 32.9497C20.3219 32.7202 20.2873 32.5219 20.2193 32.3565C20.1509 32.1897 20.0577 32.0635 19.9411 31.9756C19.8245 31.8881 19.6967 31.8448 19.5574 31.8448C19.4127 31.8448 19.2833 31.889 19.1695 31.9787C19.0554 32.0689 18.9676 32.1973 18.9041 32.365C18.8419 32.5341 18.8101 32.7288 18.8101 32.9497ZM24.8713 32.956C24.8713 33.2147 24.8351 33.4518 24.7617 33.6691C24.6875 33.8868 24.5816 34.0739 24.4423 34.2298C24.3034 34.3867 24.1365 34.5057 23.9436 34.5891C23.7503 34.672 23.5326 34.7144 23.2915 34.7144C23.0508 34.7144 22.8353 34.672 22.6444 34.5878C22.4532 34.5035 22.2871 34.3822 22.1466 34.2244C22.0068 34.0676 21.9001 33.8814 21.828 33.6668C21.7558 33.4518 21.7191 33.2147 21.7191 32.9551C21.7191 32.6932 21.7558 32.4529 21.8288 32.2352C21.903 32.0179 22.0081 31.8318 22.1457 31.6772C22.283 31.5234 22.4495 31.4044 22.6444 31.321C22.8394 31.2377 23.055 31.1953 23.2915 31.1953C23.531 31.1953 23.7486 31.2377 23.9436 31.3219C24.1381 31.4062 24.3054 31.5275 24.4452 31.6844C24.5845 31.8403 24.6904 32.0265 24.7625 32.2429C24.8351 32.4583 24.8713 32.6963 24.8713 32.956ZM24.0759 32.956C24.0759 32.603 24.0046 32.3294 23.8632 32.1324C23.721 31.9368 23.531 31.8381 23.2915 31.8381C23.1362 31.8381 23.0005 31.8814 22.8827 31.9693C22.7648 32.0567 22.6741 32.1865 22.6106 32.3574C22.5464 32.5287 22.5146 32.7288 22.5146 32.956C22.5146 33.1823 22.5464 33.3801 22.6086 33.5492C22.6721 33.7178 22.7611 33.8476 22.8777 33.9373C22.9944 34.0275 23.1333 34.0716 23.2915 34.0716C23.531 34.0716 23.721 33.9734 23.8632 33.775C24.0046 33.578 24.0759 33.3044 24.0759 32.956ZM26.2249 31.6826V31.7871C26.3732 31.5861 26.5286 31.4378 26.689 31.3436C26.8493 31.2494 27.0306 31.202 27.2334 31.202C27.4778 31.202 27.7012 31.2701 27.9061 31.4076C28.1109 31.5451 28.2733 31.7461 28.392 32.0103C28.5107 32.2744 28.5701 32.5868 28.5701 32.9483C28.5701 33.2147 28.5354 33.459 28.467 33.6822C28.399 33.9048 28.3038 34.0924 28.1843 34.2438C28.0643 34.3953 27.923 34.5111 27.7598 34.5923C27.5965 34.6734 27.4214 34.7144 27.2334 34.7144C27.0076 34.7144 26.8176 34.6648 26.6642 34.5652C26.5109 34.4669 26.3646 34.3204 26.2249 34.128V35.4284C26.2249 35.8098 26.0983 36 25.8453 36C25.6965 36 25.598 35.9513 25.5493 35.8531C25.5007 35.7543 25.4772 35.6114 25.4772 35.4235V31.6866C25.4772 31.5221 25.5098 31.399 25.5761 31.3179C25.6413 31.2368 25.7315 31.1953 25.8453 31.1953C25.957 31.1953 26.0489 31.2377 26.1189 31.321C26.1894 31.4053 26.2249 31.5252 26.2249 31.6826ZM27.7746 32.9407C27.7746 32.7126 27.7429 32.5165 27.6786 32.3533C27.6151 32.1897 27.5273 32.0635 27.4144 31.9756C27.3006 31.8881 27.1757 31.8448 27.0393 31.8448C26.8209 31.8448 26.6366 31.9386 26.4874 32.1261C26.3378 32.3141 26.2628 32.5913 26.2628 32.956C26.2628 33.3004 26.337 33.5686 26.4854 33.7588C26.6346 33.9504 26.8188 34.0455 27.0393 34.0455C27.17 34.0455 27.2915 34.0036 27.4032 33.9202C27.5153 33.8368 27.6052 33.7124 27.6736 33.546C27.7408 33.3779 27.7746 33.1769 27.7746 32.9407ZM29.2489 31.2733H29.3359V30.7526C29.3359 30.6133 29.3387 30.5038 29.3457 30.4249C29.3527 30.3447 29.3713 30.2766 29.4022 30.2203C29.4327 30.1608 29.4772 30.1121 29.5357 30.0756C29.593 30.0386 29.6573 30.0201 29.7295 30.0201C29.8296 30.0201 29.9195 30.0612 30.0007 30.1436C30.0551 30.1986 30.0889 30.2658 30.1037 30.346C30.1185 30.4249 30.1255 30.5376 30.1255 30.6837V31.2733H30.4153C30.527 31.2733 30.6131 31.3026 30.6717 31.3598C30.731 31.4184 30.7607 31.4928 30.7607 31.5829C30.7607 31.6997 30.7182 31.7808 30.6342 31.8273C30.5501 31.8737 30.4301 31.8967 30.2727 31.8967H30.1255V33.4874C30.1255 33.6227 30.1293 33.7277 30.1383 33.8003C30.147 33.8728 30.1701 33.9319 30.2076 33.9774C30.2463 34.0229 30.3073 34.0455 30.3926 34.0455C30.438 34.0455 30.5014 34.0369 30.5806 34.0189C30.6597 34.0013 30.7219 33.9914 30.7656 33.9914C30.8299 33.9914 30.8872 34.0198 30.9387 34.0761C30.9903 34.1325 31.015 34.2014 31.015 34.2839C31.015 34.4232 30.9457 34.5296 30.8073 34.6031C30.6675 34.6779 30.4676 34.7144 30.2067 34.7144C29.959 34.7144 29.7723 34.6689 29.6454 34.5783C29.518 34.4872 29.4348 34.3619 29.3952 34.2005C29.3556 34.0405 29.3359 33.826 29.3359 33.5578V31.8967H29.232C29.117 31.8967 29.03 31.8674 28.9707 31.8079C28.9105 31.7493 28.8808 31.6735 28.8808 31.5829C28.8808 31.4928 28.9122 31.4184 28.9748 31.3598C29.0379 31.3026 29.1289 31.2733 29.2489 31.2733ZM33.3066 34.2285C33.1145 34.3908 32.9295 34.512 32.7514 34.5932C32.5721 34.6743 32.3714 34.7144 32.1497 34.7144C31.9469 34.7144 31.768 34.6702 31.6147 34.5823C31.4609 34.4949 31.3422 34.3768 31.2594 34.2262C31.1761 34.0761 31.1345 33.9139 31.1345 33.7385C31.1345 33.5014 31.2029 33.3004 31.3406 33.1336C31.4778 32.9659 31.667 32.8541 31.9073 32.7969C31.9568 32.7838 32.0817 32.7558 32.2803 32.7117C32.4794 32.667 32.6504 32.6269 32.7918 32.5891C32.9336 32.5525 33.0877 32.5079 33.2542 32.4552C33.2444 32.2266 33.2027 32.059 33.1285 31.953C33.0531 31.8457 32.8998 31.7925 32.6653 31.7925C32.4646 31.7925 32.3129 31.8232 32.2123 31.8845C32.1101 31.9454 32.0231 32.0373 31.951 32.1608C31.8789 32.283 31.8274 32.3632 31.7977 32.4029C31.7668 32.4421 31.7025 32.4615 31.6044 32.4615C31.5153 32.4615 31.4383 32.4299 31.374 32.3673C31.3097 32.3055 31.2771 32.2257 31.2771 32.1284C31.2771 31.9756 31.3266 31.8273 31.4247 31.6835C31.5236 31.5397 31.6769 31.4216 31.8855 31.3287C32.0944 31.2354 32.3545 31.189 32.6661 31.189C33.0135 31.189 33.2876 31.2345 33.4867 31.3242C33.6854 31.4139 33.8259 31.5559 33.9079 31.7506C33.9904 31.9454 34.0316 32.2027 34.0316 32.5241C34.0316 32.7279 34.0308 32.8996 34.0295 33.0416C34.0287 33.1832 34.0279 33.3414 34.0258 33.5145C34.0258 33.6768 34.0505 33.8467 34.1 34.0229C34.1495 34.1983 34.1734 34.3119 34.1734 34.3628C34.1734 34.4516 34.1354 34.5328 34.0596 34.6053C33.9821 34.6779 33.896 34.7144 33.7991 34.7144C33.7179 34.7144 33.638 34.6734 33.5588 34.59C33.4797 34.5066 33.3956 34.3867 33.3066 34.2285ZM33.2542 32.9745C33.1384 33.0209 32.9699 33.0705 32.7485 33.1214C32.5276 33.1737 32.3743 33.2125 32.2894 33.2364C32.2041 33.2611 32.1233 33.3089 32.0458 33.3792C31.9687 33.4505 31.93 33.5492 31.93 33.6768C31.93 33.8075 31.9757 33.9193 32.0668 34.0112C32.1567 34.1032 32.2754 34.1496 32.4229 34.1496C32.5791 34.1496 32.7238 34.1117 32.8553 34.0369C32.988 33.9612 33.0849 33.8652 33.1471 33.7462C33.2184 33.615 33.2542 33.3986 33.2542 33.098V32.9745ZM35.6176 33.4658V34.1884C35.6176 34.3637 35.5801 34.4949 35.5051 34.5823C35.4296 34.6702 35.3348 34.7144 35.219 34.7144C35.1053 34.7144 35.0113 34.6702 34.9379 34.5814C34.865 34.4926 34.8283 34.3619 34.8283 34.1884V31.7786C34.8283 31.39 34.9569 31.1953 35.2132 31.1953C35.3435 31.1953 35.4387 31.2408 35.496 31.3319C35.5545 31.4225 35.5862 31.5582 35.592 31.7353C35.686 31.5582 35.7828 31.4225 35.883 31.3319C35.9827 31.2408 36.1155 31.1953 36.2816 31.1953C36.4481 31.1953 36.6092 31.2408 36.7654 31.3319C36.9221 31.4225 37 31.5437 37 31.6943C37 31.8002 36.9674 31.8868 36.9002 31.9562C36.8339 32.0256 36.7617 32.059 36.6842 32.059C36.6558 32.059 36.5853 32.0396 36.4744 32.0004C36.3628 31.9616 36.2647 31.9422 36.1798 31.9422C36.0639 31.9422 35.97 31.9756 35.8958 32.0418C35.8224 32.1085 35.7651 32.2073 35.7247 32.338C35.6839 32.4692 35.6563 32.6251 35.6407 32.8054C35.6258 32.9862 35.6176 33.2062 35.6176 33.4658Z" fill="white"/>
<path d="M13.7167 6.70695C13.5753 6.51718 13.3783 6.39953 13.1603 6.39953C12.9422 6.39953 12.7456 6.51718 12.6039 6.70695C12.4645 6.89357 12.378 7.15141 12.378 7.43494C12.378 7.71892 12.4645 7.97676 12.6039 8.16338C12.7456 8.35315 12.9422 8.4708 13.1603 8.4708C13.3783 8.4708 13.5753 8.35315 13.7167 8.16338C13.8564 7.97676 13.9425 7.71892 13.9425 7.43494C13.9425 7.15141 13.8564 6.89357 13.7167 6.70695Z" fill="white"/>
<path d="M13.6957 6.9711C13.6478 6.90664 13.5807 6.86697 13.5056 6.86697C13.4306 6.86697 13.3639 6.90664 13.3156 6.9711C13.2699 7.03195 13.2415 7.11625 13.2415 7.20865C13.2415 7.30061 13.2699 7.3849 13.3156 7.44576C13.3639 7.51022 13.4306 7.54988 13.5056 7.54988C13.5807 7.54988 13.6478 7.51022 13.6957 7.44576C13.7414 7.3849 13.7698 7.30061 13.7698 7.20865C13.7698 7.11625 13.7414 7.03195 13.6957 6.9711Z" fill="#FEFEFE"/>
</svg>
