<svg width="27" height="27" viewBox="0 0 27 27" fill="none" xmlns="http://www.w3.org/2000/svg">
<circle cx="13.5" cy="13.5" r="13.5" fill="#4C1F7B"/>
<g clip-path="url(#clip0_477_2)">
<path d="M14.3291 14.4051C13.8316 14.8988 13.0231 14.8988 12.5049 14.4051C12.0073 13.8908 12.0073 13.0885 12.5256 12.5948L19.0141 6.15593C19.5116 5.66222 20.3408 5.66222 20.8384 6.15593C21.3359 6.67022 21.3359 7.4725 20.8384 7.96622L14.3291 14.4051Z" fill="white"/>
<path d="M20.8384 19.013C21.3359 19.5067 21.3359 20.3296 20.8384 20.8233C20.3408 21.3376 19.5116 21.3376 19.0141 20.8438L12.5256 14.405C12.0073 13.9113 12.0073 13.0884 12.5049 12.5947C13.0231 12.0804 13.8316 12.0804 14.3291 12.5947L20.8384 19.013Z" fill="white"/>
<path d="M12.65 14.4051C13.1683 14.8988 13.9768 14.8988 14.495 14.4051C14.9925 13.8908 14.9925 13.0885 14.4743 12.5948L7.98578 6.15593C7.48826 5.66222 6.65905 5.66222 6.16153 6.15593C5.66401 6.67022 5.66401 7.4725 6.16153 7.96622L12.65 14.4051Z" fill="white"/>
<path d="M6.16233 19.013C5.6648 19.5067 5.6648 20.3296 6.16233 20.8233C6.65985 21.3376 7.48905 21.3376 7.98657 20.8438L14.4751 14.405C14.9933 13.9113 14.9933 13.0884 14.4958 12.5947C13.9776 12.0804 13.1691 12.0804 12.6508 12.5947L6.16233 19.013Z" fill="white"/>
</g>
<defs>
<clipPath id="clip0_477_2">
<rect width="15.4286" height="15.4286" fill="white" transform="translate(5.78571 5.78564)"/>
</clipPath>
</defs>
</svg>
