<svg width="43" height="33" viewBox="0 0 43 33" fill="none" xmlns="http://www.w3.org/2000/svg">
<path fill-rule="evenodd" clip-rule="evenodd" d="M13.7846 10.6502C16.2493 10.6502 18.248 12.1673 18.248 14.0385C18.248 15.9102 16.2493 17.4273 13.7846 17.4273C11.3194 17.4273 9.32111 15.9102 9.32111 14.0385C9.32111 12.1673 11.3194 10.6502 13.7846 10.6502Z" fill="white"/>
<path d="M13.7847 10.5757C15.0356 10.5757 16.169 10.9613 16.9902 11.5844C17.8165 12.2118 18.3276 13.0794 18.3276 14.0386C18.3276 14.9977 17.8165 15.8658 16.9902 16.4927C16.169 17.1163 15.0356 17.5019 13.7847 17.5019C12.5338 17.5019 11.3999 17.1163 10.5787 16.4927C9.75246 15.8658 9.24133 14.9977 9.24133 14.0386C9.24133 13.0794 9.75246 12.2118 10.5787 11.5844C11.3999 10.9613 12.5338 10.5757 13.7847 10.5757ZM16.8907 11.701C16.0966 11.0982 14.9985 10.7248 13.7847 10.7248C12.5705 10.7248 11.4723 11.0982 10.6782 11.701C9.88917 12.3 9.40065 13.1266 9.40065 14.0386C9.40065 14.9505 9.88917 15.7776 10.6782 16.3766C11.4723 16.9794 12.5705 17.3523 13.7847 17.3523C14.9985 17.3523 16.0966 16.9794 16.8907 16.3766C17.6798 15.7776 18.1683 14.9505 18.1683 14.0386C18.1683 13.1266 17.6798 12.3 16.8907 11.701Z" fill="white"/>
<path fill-rule="evenodd" clip-rule="evenodd" d="M8.13905 15.2503C10.3861 15.2503 12.2075 16.9388 12.2075 19.0219C12.2075 21.105 10.3861 22.7935 8.13905 22.7935C5.89249 22.7935 4.07062 21.105 4.07062 19.0219C4.07062 16.9388 5.89249 15.2503 8.13905 15.2503Z" fill="white"/>
<path d="M8.13937 15.1752C9.28376 15.1752 10.3211 15.6057 11.0715 16.3015C11.8223 16.9978 12.2872 17.9598 12.2872 19.0219C12.2872 20.084 11.8223 21.046 11.0715 21.7418C10.3211 22.4381 9.28376 22.8686 8.13937 22.8686C6.99398 22.8686 5.95714 22.4381 5.20678 21.7423C4.45542 21.046 3.99103 20.084 3.99103 19.0219C3.99103 17.9598 4.45542 16.9978 5.20678 16.3015C5.95714 15.6057 6.99398 15.1752 8.13937 15.1752ZM10.9604 16.4077C10.2382 15.7388 9.24104 15.3248 8.13937 15.3248C7.0372 15.3248 6.03957 15.7388 5.31786 16.4077C4.59664 17.0766 4.15035 18.0009 4.15035 19.0219C4.15035 20.0429 4.59664 20.9672 5.31786 21.6356C6.03957 22.3049 7.0372 22.7189 8.13937 22.7189C9.24104 22.7189 10.2387 22.3049 10.9604 21.6356C11.6816 20.9672 12.1279 20.0424 12.1279 19.0219C12.1279 18.0009 11.6816 17.0766 10.9604 16.4077Z" fill="white"/>
<path fill-rule="evenodd" clip-rule="evenodd" d="M7.95856 22.7897L5.32953 16.2939L10.6238 11.6462L11.8601 11.0562L13.7921 10.6502C13.9102 14.4015 14.0268 18.1066 14.1449 21.8574C12.0888 21.7819 9.95533 22.785 7.95856 22.7897Z" fill="white"/>
<path d="M7.88388 22.8162L5.23676 16.2737C7.0139 14.7098 8.78853 13.1346 10.5782 11.5844C10.9939 11.3833 11.4145 11.1803 11.8332 10.9854C12.5092 10.8376 13.1912 10.6998 13.8692 10.5577C13.9858 14.3501 14.1059 18.1429 14.227 21.9349L14.1426 21.9316C13.0781 21.8929 11.986 22.1473 10.9034 22.3998C9.90829 22.6316 8.92071 22.862 7.95826 22.8643L7.90348 22.8648L7.88388 22.8162ZM5.42321 16.3143L8.01304 22.7151C8.9378 22.7043 9.89824 22.4805 10.8657 22.2549C11.9302 22.0066 13.0037 21.7564 14.0637 21.7805L13.7159 10.7427L11.888 11.1265L10.6702 11.7081L5.42321 16.3143Z" fill="white"/>
<path fill-rule="evenodd" clip-rule="evenodd" d="M13.9485 10.6502C11.4833 10.6502 9.48499 12.1673 9.48499 14.0385C9.48499 15.9102 11.4833 17.4273 13.9485 17.4273C16.4136 17.4273 18.4119 15.9102 18.4119 14.0385C18.4119 12.1673 16.4136 10.6502 13.9485 10.6502Z" fill="white"/>
<path d="M13.9483 10.7248C12.7345 10.7248 11.6359 11.0982 10.8418 11.701C10.0527 12.3 9.56421 13.1266 9.56421 14.0386C9.56421 14.9505 10.0527 15.7771 10.8418 16.3766C11.6359 16.9794 12.7345 17.3523 13.9483 17.3523C15.1625 17.3523 16.2607 16.9794 17.0548 16.3766C17.8438 15.7776 18.3323 14.9505 18.3323 14.0386C18.3323 13.1266 17.8438 12.3 17.0548 11.701C16.2607 11.0982 15.162 10.7248 13.9483 10.7248ZM10.7423 11.5849C11.5635 10.9613 12.6973 10.5757 13.9483 10.5757C15.1992 10.5757 16.333 10.9613 17.1543 11.5844C17.9805 12.2118 18.4911 13.0794 18.4911 14.0386C18.4911 14.9977 17.9805 15.8658 17.1543 16.4927C16.333 17.1163 15.1992 17.5019 13.9483 17.5019C12.6973 17.5019 11.5635 17.1163 10.7423 16.4927C9.91653 15.8654 9.4054 14.9977 9.4054 14.0386C9.4054 13.0794 9.91653 12.2118 10.7423 11.5849Z" fill="white"/>
<path fill-rule="evenodd" clip-rule="evenodd" d="M16.5931 21.569L20.7681 14.8585L17.1093 11.6462L15.8724 11.0562L13.9405 10.6502C13.8224 14.4015 13.7058 18.1099 13.5876 21.8607C15.5915 21.7484 14.5963 21.5638 16.5931 21.569Z" fill="white"/>
<path d="M16.5474 21.4944L20.6671 14.8717L17.063 11.7081L15.8453 11.1265L14.0169 10.7427L13.6696 21.7814C14.5275 21.73 14.7954 21.6653 15.022 21.611C15.2954 21.5449 15.5111 21.4935 16.5474 21.4944ZM20.8365 14.8958L16.6389 21.6436L16.5931 21.6431C15.5372 21.6408 15.3276 21.6913 15.0612 21.7555C14.82 21.8135 14.533 21.8825 13.5922 21.9353L13.5057 21.94C13.6249 18.1462 13.7435 14.352 13.8641 10.5582L15.9001 10.9854C16.3182 11.1855 16.7374 11.3838 17.155 11.5844C18.3949 12.6691 19.6313 13.7577 20.8686 14.8443L20.8365 14.8958Z" fill="white"/>
<path fill-rule="evenodd" clip-rule="evenodd" d="M1.81709 6.08227C3.22735 5.67773 4.82205 7.03627 5.37842 9.11656C5.93528 11.1968 5.24322 13.2115 3.83297 13.6161C2.42321 14.0206 0.828505 12.6621 0.27164 10.5818C-0.284723 8.50101 0.406836 6.48681 1.81709 6.08227Z" fill="white"/>
<path d="M1.79445 6.01099C1.8251 6.00202 1.85526 5.99399 1.8829 5.98786C2.56994 5.82547 3.29014 6.05442 3.91536 6.56564C4.53203 7.06978 5.05774 7.85006 5.36683 8.80029C5.3995 8.90036 5.42915 8.99996 5.45579 9.09862C5.73774 10.1522 5.70306 11.1907 5.4191 12.0177C5.13162 12.8547 4.58782 13.4778 3.85605 13.6873C3.82389 13.6968 3.79474 13.7043 3.7681 13.7105C3.08056 13.8729 2.35986 13.6439 1.73414 13.1322C1.11746 12.6281 0.591255 11.8464 0.282667 10.8962C0.249999 10.7966 0.220346 10.6974 0.194714 10.5997C-0.0872366 9.54611 -0.0525581 8.50762 0.231403 7.6806C0.518882 6.84367 1.06268 6.22057 1.79445 6.01099ZM1.9216 6.1323C1.89245 6.13938 1.86531 6.14646 1.84018 6.15354C1.16169 6.34803 0.654078 6.93477 0.382179 7.72639C0.107264 8.52792 0.0740936 9.53714 0.349008 10.5638C0.375645 10.6644 0.404293 10.7611 0.434448 10.8527C0.733989 11.7756 1.24261 12.5323 1.83867 13.0194C2.42519 13.499 3.09564 13.7152 3.7294 13.5656L3.81032 13.5448C4.48831 13.3503 4.99592 12.7631 5.26782 11.9719C5.54324 11.1704 5.5759 10.1612 5.30149 9.13449C5.27435 9.03347 5.24571 8.93623 5.21505 8.84324C4.91551 7.92134 4.40639 7.16513 3.81132 6.67846C3.22481 6.19886 2.55486 5.98314 1.9216 6.1323Z" fill="white"/>
<path fill-rule="evenodd" clip-rule="evenodd" d="M1.81709 6.08227C3.22735 5.67773 4.82205 7.03627 5.37842 9.11656C5.93528 11.1968 5.24322 13.2115 3.83297 13.6161C2.42321 14.0206 0.828505 12.6621 0.27164 10.5818C-0.284723 8.50101 0.406836 6.48681 1.81709 6.08227Z" fill="white"/>
<path d="M1.79445 6.01099C1.8251 6.00202 1.85526 5.99399 1.8829 5.98786C2.56994 5.82547 3.29014 6.05442 3.91536 6.56564C4.53203 7.06978 5.05774 7.85006 5.36683 8.80029C5.3995 8.90036 5.42915 8.99996 5.45579 9.09862C5.73774 10.1522 5.70306 11.1907 5.4191 12.0177C5.13162 12.8547 4.58782 13.4778 3.85605 13.6873C3.82389 13.6968 3.79474 13.7043 3.7681 13.7105C3.08056 13.8729 2.35986 13.6439 1.73414 13.1322C1.11746 12.6281 0.591255 11.8464 0.282667 10.8962C0.249999 10.7966 0.220346 10.6974 0.194714 10.5997C-0.0872366 9.54611 -0.0525581 8.50762 0.231403 7.6806C0.518882 6.84367 1.06268 6.22057 1.79445 6.01099ZM1.9216 6.1323C1.89245 6.13938 1.86531 6.14646 1.84018 6.15354C1.16169 6.34803 0.654078 6.93477 0.382179 7.72639C0.107264 8.52792 0.0740936 9.53714 0.349008 10.5638C0.375645 10.6644 0.404293 10.7611 0.434448 10.8527C0.733989 11.7756 1.24261 12.5323 1.83867 13.0194C2.42519 13.499 3.09564 13.7152 3.7294 13.5656L3.81032 13.5448C4.48831 13.3503 4.99592 12.7631 5.26782 11.9719C5.54324 11.1704 5.5759 10.1612 5.30149 9.13449C5.27435 9.03347 5.24571 8.93623 5.21505 8.84324C4.91551 7.92134 4.40639 7.16513 3.81132 6.67846C3.22481 6.19886 2.55486 5.98314 1.9216 6.1323Z" fill="white"/>
<path fill-rule="evenodd" clip-rule="evenodd" d="M9.66239 0.0750504C11.4596 0.0750504 12.9166 2.02931 12.9166 4.44003C12.9166 6.85122 11.4596 8.80547 9.66239 8.80547C7.86514 8.80547 6.40814 6.85122 6.40814 4.44003C6.40814 2.02931 7.86514 0.0750504 9.66239 0.0750504Z" fill="white"/>
<path d="M9.66251 0C10.5883 0 11.4251 0.500837 12.0287 1.31086C12.6268 2.11286 12.9967 3.21933 12.9967 4.44003C12.9967 5.66073 12.6263 6.76767 12.0287 7.56967C11.4251 8.37922 10.5883 8.88053 9.66251 8.88053C8.73675 8.88053 7.89994 8.37969 7.29634 7.56967C6.69876 6.76767 6.32886 5.66073 6.32886 4.44003C6.32886 3.21933 6.69876 2.11286 7.29634 1.31086C7.89994 0.500837 8.73675 0 9.66251 0ZM11.8985 1.39583C11.3246 0.625928 10.5335 0.149637 9.66251 0.149637C8.79103 0.149637 8.00046 0.625928 7.42651 1.39583C6.84652 2.17375 6.48767 3.25001 6.48767 4.44003C6.48767 5.63005 6.84652 6.70631 7.42651 7.48423C8.00046 8.2546 8.79103 8.73089 9.66251 8.73089C10.5335 8.73089 11.3246 8.2546 11.8985 7.48423C12.4785 6.70678 12.8373 5.63005 12.8373 4.44003C12.8373 3.25001 12.4785 2.17375 11.8985 1.39583Z" fill="white"/>
<path fill-rule="evenodd" clip-rule="evenodd" d="M18.0514 0.136894C19.8487 0.136894 21.3057 2.09115 21.3057 4.50187C21.3057 6.91306 19.8487 8.86732 18.0514 8.86732C16.2542 8.86732 14.7972 6.91306 14.7972 4.50187C14.7972 2.09115 16.2542 0.136894 18.0514 0.136894Z" fill="white"/>
<path d="M18.0515 0.0618362C18.9773 0.0618362 19.8141 0.563145 20.4177 1.3727C21.0153 2.1747 21.3852 3.28116 21.3852 4.50187C21.3852 5.72257 21.0153 6.82951 20.4177 7.63151C19.8141 8.44106 18.9773 8.94237 18.0515 8.94237C17.1257 8.94237 16.2889 8.44106 15.6853 7.63151C15.0872 6.82951 14.7173 5.72257 14.7173 4.50187C14.7173 3.28116 15.0872 2.1747 15.6853 1.3727C16.2889 0.563145 17.1257 0.0618362 18.0515 0.0618362ZM20.2875 1.45814C19.7136 0.688236 18.923 0.211474 18.0515 0.211474C17.18 0.211474 16.3895 0.687764 15.8155 1.45814C15.2355 2.23559 14.8767 3.31185 14.8767 4.50187C14.8767 5.69236 15.2355 6.76861 15.8155 7.54607C16.3895 8.31644 17.18 8.79273 18.0515 8.79273C18.923 8.79273 19.7136 8.31644 20.2875 7.54607C20.8675 6.76814 21.2258 5.69188 21.2258 4.50187C21.2258 3.31185 20.8675 2.23559 20.2875 1.45814Z" fill="white"/>
<path d="M18.6738 24.4919L39.1094 24.5689C39.3014 24.5698 39.4854 24.5174 39.6552 24.4263C40.0443 24.2181 40.3724 23.8155 40.6112 23.3425C40.8715 22.828 41.0152 22.2582 41.0173 21.764V21.7602C41.0183 21.4694 40.973 21.2235 40.876 21.063L31.2907 5.25904C31.1982 5.10657 31.0088 4.95646 30.7565 4.82617C30.374 4.62886 29.89 4.5033 29.3834 4.48819C28.8868 4.47356 28.3762 4.56561 27.9329 4.80304C27.5796 4.99186 27.262 5.28122 27.0207 5.69332L17.4641 22.0184C17.3646 22.1884 17.3188 22.3946 17.3178 22.6141C17.3163 22.9705 17.4254 23.3505 17.6148 23.6866C17.7892 23.9953 18.0249 24.2512 18.2933 24.39C18.418 24.4542 18.5471 24.4915 18.6738 24.4919ZM39.1019 26.4311L18.6657 26.3541C18.1848 26.3522 17.738 26.2328 17.3369 26.0256C16.7172 25.7055 16.2066 25.174 15.8578 24.5557C15.5236 23.9642 15.3326 23.2769 15.3351 22.6141C15.3371 22.0859 15.4587 21.5705 15.7226 21.1201L25.2788 4.79502C25.709 4.06005 26.294 3.53419 26.9534 3.18158C27.7334 2.76429 28.6084 2.60097 29.4457 2.62599C30.274 2.65053 31.0736 2.86012 31.7129 3.19008C32.2768 3.48133 32.7366 3.87643 33.0166 4.33855L42.6019 20.143C42.8743 20.5919 43.002 21.1584 43 21.764V21.7678C42.9959 22.5325 42.7869 23.3883 42.4074 24.1388C42.0058 24.9323 41.4042 25.6362 40.6353 26.0473C40.1769 26.2928 39.6638 26.4334 39.1019 26.4311Z" fill="white"/>
<path fill-rule="evenodd" clip-rule="evenodd" d="M29.2315 9.93082C29.9984 9.93082 30.6206 10.4515 30.6206 11.0935C30.6206 11.7354 29.9984 12.2561 29.2315 12.2561C28.464 12.2561 27.8423 11.7354 27.8423 11.0935C27.8423 10.4515 28.464 9.93082 29.2315 9.93082Z" fill="white"/>
<path d="M29.2317 9.85622C29.6353 9.85622 30.0017 9.99359 30.267 10.2159C30.5344 10.4397 30.7003 10.7503 30.7003 11.0934C30.7003 11.4366 30.5349 11.7468 30.267 11.971C30.0017 12.1933 29.6353 12.3307 29.2317 12.3307C28.8281 12.3307 28.4617 12.1933 28.1964 11.971C27.9285 11.7468 27.7626 11.4366 27.7626 11.0934C27.7626 10.7503 27.9285 10.4397 28.1964 10.2159C28.4617 9.99359 28.8281 9.85622 29.2317 9.85622ZM30.161 10.3273C29.9238 10.1291 29.5951 10.0059 29.2317 10.0059C28.8683 10.0059 28.5396 10.1291 28.3024 10.3273C28.0672 10.5237 27.922 10.7946 27.922 11.0934C27.922 11.3922 28.0672 11.6632 28.3019 11.8596C28.5396 12.0583 28.8683 12.181 29.2317 12.181C29.5951 12.181 29.9238 12.0583 30.161 11.8596C30.3957 11.6632 30.5409 11.3922 30.5409 11.0934C30.5409 10.7946 30.3957 10.5237 30.161 10.3273Z" fill="white"/>
<path fill-rule="evenodd" clip-rule="evenodd" d="M29.1918 19.6384C29.9593 19.6384 30.581 20.2114 30.581 20.9186C30.581 21.6252 29.9593 22.1983 29.1918 22.1983C28.4249 22.1983 27.8032 21.6252 27.8032 20.9186C27.8032 20.2114 28.4249 19.6384 29.1918 19.6384Z" fill="white"/>
<path d="M29.1921 19.5638C29.5972 19.5638 29.9646 19.7153 30.2305 19.9603C30.4963 20.2058 30.6612 20.5447 30.6612 20.9185C30.6612 21.2929 30.4963 21.6313 30.2305 21.8768C29.9646 22.1218 29.5972 22.2733 29.1921 22.2733C28.7875 22.2733 28.4202 22.1218 28.1543 21.8768C27.8884 21.6313 27.7236 21.2929 27.7236 20.9185C27.7236 20.5447 27.8884 20.2053 28.1543 19.9603C28.4202 19.7153 28.787 19.5638 29.1921 19.5638ZM30.1189 20.0665C29.8822 19.8484 29.5545 19.7134 29.1921 19.7134C28.8303 19.7134 28.5026 19.8484 28.2659 20.0665C28.0291 20.2846 27.8829 20.5862 27.8829 20.9185C27.8829 21.2513 28.0291 21.5525 28.2659 21.7706C28.5026 21.9887 28.8303 22.1237 29.1921 22.1237C29.5545 22.1237 29.8822 21.9887 30.1189 21.7706C30.3556 21.5525 30.5019 21.2513 30.5019 20.9185C30.5019 20.5862 30.3556 20.2846 30.1189 20.0665Z" fill="white"/>
<path fill-rule="evenodd" clip-rule="evenodd" d="M29.2286 16.5357C29.7794 16.5357 30.2262 16.977 30.2262 17.5213C30.2262 18.066 29.7794 18.5069 29.2286 18.5069C28.6777 18.5069 28.2314 18.066 28.2314 17.5213C28.2314 16.977 28.6777 16.5357 29.2286 16.5357Z" fill="white"/>
<path d="M29.2287 16.4611C29.5267 16.4611 29.7966 16.58 29.9916 16.7731C30.1856 16.9647 30.3058 17.2295 30.3058 17.5213C30.3058 17.8135 30.1856 18.0783 29.9916 18.2699C29.7966 18.4625 29.5267 18.5819 29.2287 18.5819C28.9307 18.5819 28.6608 18.4625 28.4658 18.2699C28.2718 18.0783 28.1517 17.8135 28.1517 17.5213C28.1517 17.2295 28.2718 16.9647 28.4658 16.7731C28.6608 16.5805 28.9307 16.4611 29.2287 16.4611ZM29.8765 16.876C29.7107 16.7122 29.4815 16.6107 29.2287 16.6107C28.9759 16.6107 28.7467 16.7122 28.5809 16.876C28.4145 17.0407 28.311 17.2692 28.311 17.5213C28.311 17.7738 28.4145 18.0023 28.5809 18.167C28.7467 18.3308 28.9759 18.4323 29.2287 18.4323C29.4815 18.4323 29.7107 18.3308 29.8765 18.167C30.0434 18.0023 30.1464 17.7738 30.1464 17.5213C30.1464 17.2692 30.0434 17.0407 29.8765 16.876Z" fill="white"/>
<path fill-rule="evenodd" clip-rule="evenodd" d="M30.6207 11.0935H27.8555L28.2384 17.6081L30.2257 17.542L30.6207 11.0935Z" fill="white"/>
<path d="M30.5362 11.168H27.9393L28.3133 17.5312L30.1507 17.4703L30.5362 11.168ZM27.8554 11.0184H30.7046L30.301 17.6142L28.1635 17.685L27.7715 11.0184H27.8554Z" fill="white"/>
<path d="M7.46658 29.733H7.12382V31.1869C7.12382 31.379 7.07909 31.5197 6.98912 31.6103C6.89916 31.701 6.78156 31.7463 6.63782 31.7463C6.48151 31.7463 6.35989 31.6991 6.27445 31.6037C6.18951 31.5088 6.14679 31.3705 6.14679 31.1869V27.6994C6.14679 27.5021 6.19353 27.3586 6.28802 27.2699C6.3825 27.1811 6.53529 27.1368 6.74537 27.1368H8.33505C8.55418 27.1368 8.74214 27.1453 8.89795 27.1632C9.05425 27.1811 9.19497 27.2161 9.31962 27.2699C9.47089 27.3303 9.60509 27.4158 9.72169 27.5262C9.83728 27.6381 9.92624 27.7679 9.98554 27.9147C10.0464 28.0624 10.0765 28.2187 10.0765 28.3844C10.0765 28.7219 9.97549 28.9919 9.77245 29.1949C9.5689 29.3964 9.26132 29.5399 8.84869 29.624C9.02158 29.7108 9.18794 29.8383 9.34625 30.0073C9.50356 30.1763 9.64529 30.3566 9.76893 30.5463C9.89256 30.7375 9.98906 30.9084 10.0589 31.0627C10.1273 31.2157 10.162 31.321 10.162 31.379C10.162 31.438 10.1418 31.4975 10.1016 31.5565C10.0609 31.6155 10.0061 31.6618 9.93528 31.6958C9.86542 31.7293 9.7835 31.7463 9.69153 31.7463C9.58247 31.7463 9.48999 31.7222 9.41511 31.6736C9.34072 31.625 9.2769 31.5636 9.22262 31.4899C9.16884 31.4158 9.09597 31.3063 9.00399 31.1628L8.61147 30.5506C8.47125 30.3268 8.3456 30.156 8.23504 30.0389C8.12396 29.9209 8.01189 29.8406 7.8973 29.7972C7.78371 29.7538 7.63997 29.733 7.46658 29.733ZM8.02646 27.8269H7.12382V29.0745H7.99932C8.23403 29.0745 8.43205 29.0556 8.59237 29.0174C8.7522 28.9796 8.87432 28.914 8.95876 28.8224C9.04319 28.7304 9.08591 28.6039 9.08591 28.4434C9.08591 28.3169 9.05224 28.206 8.98339 28.1101C8.91604 28.0138 8.82155 27.9421 8.70043 27.8944C8.58685 27.8491 8.36219 27.8269 8.02646 27.8269ZM13.28 30.2395H11.5214C11.524 30.4316 11.5652 30.6001 11.6451 30.747C11.725 30.8938 11.8315 31.0033 11.9642 31.0774C12.0969 31.152 12.2442 31.1893 12.4035 31.1893C12.5115 31.1893 12.609 31.1775 12.698 31.1534C12.788 31.1303 12.8734 31.093 12.9563 31.0425C13.0408 30.9919 13.1172 30.9381 13.1865 30.8801C13.2574 30.822 13.3483 30.7436 13.4609 30.6445C13.5067 30.6077 13.572 30.5888 13.6574 30.5888C13.7494 30.5888 13.8248 30.6129 13.8821 30.6606C13.9384 30.7068 13.9675 30.7743 13.9675 30.8612C13.9675 30.9372 13.9349 31.0255 13.872 31.1279C13.8082 31.2294 13.7127 31.3276 13.5831 31.4201C13.4554 31.514 13.2946 31.5924 13.1001 31.6533C12.9056 31.7156 12.6824 31.7463 12.4306 31.7463C11.8532 31.7463 11.4048 31.5914 11.0847 31.2822C10.7646 30.9731 10.6047 30.5539 10.6047 30.0243C10.6047 29.775 10.6439 29.5428 10.7228 29.3299C10.8012 29.1165 10.9173 28.9343 11.0676 28.7809C11.2194 28.6289 11.4059 28.5118 11.6275 28.4306C11.8486 28.3495 12.0944 28.3084 12.3643 28.3084C12.7161 28.3084 13.0171 28.3778 13.2674 28.517C13.5192 28.6568 13.7067 28.8361 13.8328 29.0575C13.9575 29.278 14.0203 29.5027 14.0203 29.7321C14.0203 29.944 13.955 30.0823 13.8258 30.1456C13.6966 30.2079 13.5147 30.2395 13.28 30.2395ZM11.5214 29.7585H13.1508C13.1292 29.4701 13.0463 29.2548 12.9026 29.1113C12.7588 28.9688 12.5698 28.897 12.3351 28.897C12.1105 28.897 11.927 28.9702 11.7833 29.1146C11.6396 29.26 11.5521 29.4743 11.5214 29.7585ZM15.519 28.7894V28.8918C15.6879 28.6955 15.8643 28.551 16.0462 28.4594C16.2282 28.3674 16.4337 28.3211 16.6639 28.3211C16.9413 28.3211 17.1956 28.3872 17.4278 28.5213C17.6605 28.6553 17.845 28.8517 17.9797 29.1094C18.1144 29.3667 18.1822 29.6716 18.1822 30.0243C18.1822 30.2839 18.1425 30.5223 18.0651 30.7394C17.9877 30.957 17.8797 31.1397 17.744 31.2874C17.6078 31.4352 17.4469 31.548 17.2615 31.6268C17.0765 31.7061 16.8775 31.7463 16.6639 31.7463C16.4081 31.7463 16.192 31.6976 16.0181 31.6009C15.8437 31.5046 15.6773 31.3625 15.519 31.1746V32.443C15.519 32.8145 15.3753 33 15.0878 33C14.9194 33 14.8069 32.9523 14.7516 32.8565C14.6968 32.7607 14.6696 32.621 14.6696 32.4373V28.7936C14.6696 28.6331 14.7068 28.5128 14.7822 28.4339C14.8561 28.3546 14.9586 28.3145 15.0878 28.3145C15.2144 28.3145 15.319 28.3556 15.3989 28.4368C15.4788 28.5194 15.519 28.6365 15.519 28.7894ZM17.2786 30.0167C17.2786 29.7939 17.2429 29.6032 17.1695 29.4436C17.0976 29.2846 16.9976 29.1609 16.8695 29.0755C16.7403 28.99 16.5991 28.948 16.4438 28.948C16.1955 28.948 15.9864 29.0396 15.817 29.2223C15.6472 29.4059 15.5617 29.6759 15.5617 30.0313C15.5617 30.367 15.6462 30.6289 15.8145 30.8145C15.9844 31.0014 16.1935 31.0944 16.4438 31.0944C16.592 31.0944 16.7302 31.0528 16.8574 30.9716C16.9841 30.8905 17.0866 30.7691 17.164 30.6068C17.2404 30.443 17.2786 30.2466 17.2786 30.0167ZM22.2672 30.0313C22.2672 30.2839 22.2255 30.5147 22.1426 30.7271C22.0582 30.9391 21.938 31.1218 21.7797 31.2738C21.6224 31.4267 21.4324 31.5428 21.2133 31.624C20.9942 31.7052 20.7469 31.7463 20.473 31.7463C20.1996 31.7463 19.9548 31.7052 19.7382 31.6231C19.5211 31.5405 19.3326 31.4224 19.1728 31.2686C19.0145 31.1151 18.8934 30.9339 18.811 30.7248C18.729 30.5147 18.6873 30.2839 18.6873 30.0304C18.6873 29.775 18.729 29.5409 18.8125 29.3289C18.8964 29.1165 19.0155 28.9353 19.1718 28.7842C19.3281 28.6346 19.5166 28.5184 19.7382 28.4368C19.9594 28.3556 20.2041 28.3145 20.473 28.3145C20.7449 28.3145 20.9922 28.3556 21.2133 28.4382C21.4345 28.5203 21.6244 28.6388 21.7827 28.7918C21.9416 28.9438 22.0617 29.125 22.1436 29.336C22.2255 29.5461 22.2672 29.7783 22.2672 30.0313ZM21.3636 30.0313C21.3636 29.6877 21.2827 29.4205 21.1224 29.2284C20.9605 29.0377 20.7449 28.9414 20.473 28.9414C20.2966 28.9414 20.1423 28.9839 20.0086 29.0693C19.8749 29.1548 19.7719 29.2813 19.7 29.4479C19.6267 29.6145 19.591 29.8099 19.591 30.0313C19.591 30.2523 19.6267 30.4453 19.6975 30.6096C19.7694 30.7743 19.8704 30.9013 20.0031 30.9886C20.1358 31.0764 20.2931 31.1194 20.473 31.1194C20.7449 31.1194 20.9605 31.0236 21.1224 30.8305C21.2827 30.6384 21.3636 30.3712 21.3636 30.0313ZM23.865 30.5284V31.2336C23.865 31.4045 23.8222 31.532 23.7368 31.6174C23.6514 31.7028 23.5433 31.7463 23.4121 31.7463C23.283 31.7463 23.1759 31.7028 23.093 31.6165C23.0096 31.5301 22.9683 31.4021 22.9683 31.2336V28.8833C22.9683 28.5048 23.1141 28.3145 23.4051 28.3145C23.5534 28.3145 23.6614 28.3589 23.7268 28.4476C23.7931 28.5364 23.8288 28.6681 23.8358 28.8413C23.9424 28.6681 24.0524 28.5364 24.166 28.4476C24.2796 28.3589 24.4299 28.3145 24.6188 28.3145C24.8073 28.3145 24.9908 28.3589 25.1682 28.4476C25.3456 28.5364 25.4345 28.6544 25.4345 28.8012C25.4345 28.9046 25.3973 28.9891 25.321 29.0566C25.2456 29.1241 25.1636 29.1566 25.0762 29.1566C25.0435 29.1566 24.9636 29.1378 24.838 29.0995C24.7108 29.0618 24.5997 29.0429 24.5027 29.0429C24.3716 29.0429 24.265 29.0755 24.1806 29.1396C24.0972 29.2053 24.0323 29.3011 23.9861 29.429C23.9404 29.5565 23.9087 29.7085 23.8906 29.885C23.874 30.0611 23.865 30.2754 23.865 30.5284ZM26.0593 28.3905H26.1578V27.8831C26.1578 27.7471 26.1613 27.6404 26.1693 27.563C26.1769 27.4851 26.1985 27.4186 26.2331 27.3638C26.2683 27.3058 26.3186 27.2581 26.3849 27.2222C26.4503 27.1868 26.5231 27.1684 26.6051 27.1684C26.7186 27.1684 26.8207 27.2085 26.9131 27.2888C26.975 27.3426 27.0132 27.4082 27.0297 27.4861C27.0468 27.563 27.0544 27.673 27.0544 27.8156V28.3905H27.3836C27.5107 28.3905 27.6082 28.4188 27.6746 28.475C27.7419 28.5321 27.7761 28.6048 27.7761 28.6926C27.7761 28.8064 27.7273 28.8857 27.6318 28.931C27.5364 28.9763 27.4007 28.9985 27.2217 28.9985H27.0544V30.5496C27.0544 30.6818 27.0589 30.7838 27.069 30.8546C27.0795 30.9254 27.1051 30.9834 27.1479 31.0278C27.1916 31.0722 27.2614 31.0944 27.3579 31.0944C27.4097 31.0944 27.4816 31.0859 27.5715 31.0679C27.661 31.0509 27.7319 31.0415 27.7816 31.0415C27.8545 31.0415 27.9198 31.0689 27.9781 31.1236C28.0364 31.1784 28.0646 31.2459 28.0646 31.3261C28.0646 31.4626 27.9862 31.5659 27.8289 31.6377C27.67 31.7104 27.4434 31.7463 27.1469 31.7463C26.8659 31.7463 26.6533 31.7019 26.5096 31.6132C26.3648 31.5249 26.2703 31.4021 26.2251 31.245C26.1804 31.0887 26.1578 30.8801 26.1578 30.6181V28.9985H26.0402C25.9095 28.9985 25.811 28.9702 25.7436 28.9117C25.6748 28.855 25.6411 28.7809 25.6411 28.6926C25.6411 28.6048 25.6773 28.5321 25.7477 28.475C25.8195 28.4188 25.9231 28.3905 26.0593 28.3905ZM30.667 31.2723C30.4488 31.4309 30.2388 31.549 30.0362 31.6283C29.8332 31.7071 29.605 31.7463 29.3532 31.7463C29.123 31.7463 28.9195 31.7028 28.7456 31.6174C28.5712 31.532 28.4365 31.4173 28.342 31.2704C28.2475 31.1236 28.2008 30.9655 28.2008 30.7946C28.2008 30.5633 28.2782 30.367 28.4345 30.2046C28.5903 30.0413 28.8049 29.9322 29.0783 29.8765C29.1341 29.8638 29.2758 29.8364 29.5015 29.793C29.7276 29.75 29.9216 29.7108 30.0825 29.674C30.2433 29.6381 30.4182 29.5947 30.6072 29.5428C30.5961 29.3204 30.5489 29.1566 30.4644 29.0533C30.379 28.9489 30.2051 28.897 29.9387 28.897C29.7105 28.897 29.5387 28.9268 29.4241 28.9867C29.3085 29.0462 29.2095 29.1354 29.1275 29.2558C29.0456 29.3752 28.9868 29.4531 28.9531 29.4923C28.9185 29.5305 28.8456 29.5494 28.734 29.5494C28.633 29.5494 28.5455 29.5187 28.4727 29.4573C28.3993 29.3974 28.3626 29.319 28.3626 29.2241C28.3626 29.0755 28.4184 28.931 28.53 28.7908C28.642 28.6501 28.8164 28.5354 29.0532 28.4443C29.2904 28.3537 29.5859 28.3084 29.9397 28.3084C30.3343 28.3084 30.6454 28.3528 30.871 28.4401C31.0972 28.5279 31.2565 28.6662 31.35 28.856C31.443 29.0462 31.4902 29.2973 31.4902 29.6103C31.4902 29.809 31.4892 29.9766 31.4882 30.1149C31.4872 30.2532 31.4857 30.4071 31.4837 30.5761C31.4837 30.7342 31.5118 30.8999 31.5676 31.0722C31.6239 31.2431 31.651 31.354 31.651 31.4036C31.651 31.4899 31.6083 31.5693 31.5219 31.6396C31.4339 31.7104 31.3364 31.7463 31.2263 31.7463C31.1344 31.7463 31.0429 31.7061 30.9534 31.625C30.8635 31.5438 30.768 31.4267 30.667 31.2723ZM30.6072 30.0493C30.476 30.0951 30.2845 30.1432 30.0332 30.1928C29.7824 30.2438 29.6085 30.2815 29.5115 30.3046C29.415 30.3292 29.323 30.3755 29.2351 30.4444C29.1476 30.5138 29.1039 30.6096 29.1039 30.7342C29.1039 30.8621 29.1557 30.9707 29.2587 31.0604C29.3612 31.1501 29.4959 31.1954 29.6633 31.1954C29.8407 31.1954 30.0051 31.1586 30.1543 31.0859C30.3051 31.0118 30.4152 30.9178 30.486 30.8017C30.5669 30.6743 30.6072 30.4633 30.6072 30.1696V30.0493ZM34.8621 31.2638V31.1808C34.7419 31.3106 34.6228 31.4158 34.5047 31.4975C34.3881 31.5787 34.26 31.641 34.1227 31.683C33.9855 31.725 33.8363 31.7463 33.6734 31.7463C33.4588 31.7463 33.2598 31.7028 33.0769 31.6174C32.8934 31.532 32.7341 31.4106 32.6004 31.2516C32.4667 31.093 32.3657 30.9065 32.2958 30.6922C32.2275 30.4779 32.1923 30.2456 32.1923 29.9969C32.1923 29.4691 32.3295 29.0575 32.6039 28.763C32.8778 28.4689 33.2397 28.3211 33.687 28.3211C33.9463 28.3211 34.1645 28.3631 34.3419 28.4467C34.5193 28.5298 34.6937 28.6586 34.8621 28.8328V27.5866C34.8621 27.4134 34.8992 27.2826 34.9721 27.1939C35.0465 27.1051 35.1505 27.0608 35.2867 27.0608C35.4224 27.0608 35.527 27.1023 35.6014 27.1835C35.6742 27.2647 35.7114 27.3851 35.7114 27.5432V31.2638C35.7114 31.4243 35.6722 31.5456 35.5933 31.6259C35.5139 31.7061 35.4114 31.7463 35.2867 31.7463C35.1641 31.7463 35.0621 31.7043 34.9822 31.6207C34.9023 31.5376 34.8621 31.4182 34.8621 31.2638ZM33.096 30.0252C33.096 30.2541 33.1342 30.4482 33.2095 30.6096C33.2844 30.7701 33.388 30.8905 33.5206 30.9716C33.6518 31.0528 33.7956 31.0944 33.9509 31.0944C34.1092 31.0944 34.2529 31.0552 34.3836 30.9783C34.5138 30.9013 34.6183 30.7828 34.6957 30.6238C34.7731 30.4633 34.8128 30.265 34.8128 30.0252C34.8128 29.8015 34.7731 29.6084 34.6957 29.4469C34.6183 29.2846 34.5128 29.1609 34.3801 29.0755C34.2474 28.99 34.1026 28.948 33.9443 28.948C33.78 28.948 33.6327 28.991 33.5036 29.0788C33.3744 29.1661 33.2744 29.2916 33.2025 29.4554C33.1316 29.6202 33.096 29.8099 33.096 30.0252ZM39.9789 30.0313C39.9789 30.2839 39.9372 30.5147 39.8537 30.7271C39.7698 30.9391 39.6497 31.1218 39.4909 31.2738C39.3336 31.4267 39.1441 31.5428 38.925 31.624C38.7058 31.7052 38.4586 31.7463 38.1841 31.7463C37.9112 31.7463 37.6665 31.7052 37.4494 31.6231C37.2328 31.5405 37.0438 31.4224 36.8845 31.2686C36.7261 31.1151 36.6045 30.9339 36.5226 30.7248C36.4407 30.5147 36.399 30.2839 36.399 30.0304C36.399 29.775 36.4407 29.5409 36.5236 29.3289C36.608 29.1165 36.7271 28.9353 36.8835 28.7842C37.0393 28.6346 37.2282 28.5184 37.4494 28.4368C37.671 28.3556 37.9158 28.3145 38.1841 28.3145C38.456 28.3145 38.7033 28.3556 38.925 28.4382C39.1461 28.5203 39.3361 28.6388 39.4944 28.7918C39.6527 28.9438 39.7733 29.125 39.8552 29.336C39.9372 29.5461 39.9789 29.7783 39.9789 30.0313ZM39.0752 30.0313C39.0752 29.6877 38.9943 29.4205 38.834 29.2284C38.6722 29.0377 38.456 28.9414 38.1841 28.9414C38.0077 28.9414 37.8539 28.9839 37.7203 29.0693C37.5866 29.1548 37.483 29.2813 37.4112 29.4479C37.3383 29.6145 37.3026 29.8099 37.3026 30.0313C37.3026 30.2523 37.3383 30.4453 37.4092 30.6096C37.481 30.7743 37.582 30.9013 37.7147 30.9886C37.8474 31.0764 38.0047 31.1194 38.1841 31.1194C38.456 31.1194 38.6722 31.0236 38.834 30.8305C38.9943 30.6384 39.0752 30.3712 39.0752 30.0313Z" fill="white"/>
</svg>
