<svg width="25" height="26" viewBox="0 0 25 26" fill="none" xmlns="http://www.w3.org/2000/svg">
<g clip-path="url(#clip0_175_2519)">
<path d="M13.8436 14.5253C13.0374 15.3573 11.7274 15.3573 10.8876 14.5253C10.0815 13.6587 10.0815 12.3067 10.9212 11.4747L21.435 0.624C22.2412 -0.208 23.5848 -0.208 24.391 0.624C25.1971 1.49067 25.1971 2.84267 24.391 3.67467L13.8436 14.5253Z" fill="white"/>
<path d="M24.391 22.2907C25.1971 23.1227 25.1971 24.5093 24.391 25.3413C23.5848 26.208 22.2412 26.208 21.435 25.376L10.9212 14.5253C10.0815 13.6933 10.0815 12.3067 10.8876 11.4747C11.7274 10.608 13.0374 10.608 13.8436 11.4747L24.391 22.2907Z" fill="white"/>
<path d="M11.1216 14.5253C11.9613 15.3573 13.2713 15.3573 14.1111 14.5253C14.9173 13.6587 14.9173 12.3067 14.0775 11.4747L3.56372 0.624C2.75755 -0.208 1.41394 -0.208 0.60777 0.624C-0.198399 1.49067 -0.198399 2.84267 0.60777 3.67467L11.1216 14.5253Z" fill="white"/>
<path d="M0.609204 22.2907C-0.196965 23.1227 -0.196965 24.5093 0.609204 25.3413C1.41537 26.208 2.75899 26.208 3.56516 25.376L14.0789 14.5253C14.9187 13.6933 14.9187 12.3067 14.1125 11.4747C13.2728 10.608 11.9627 10.608 11.123 11.4747L0.609204 22.2907Z" fill="white"/>
</g>
<defs>
<clipPath id="clip0_175_2519">
<rect width="25" height="26" fill="white"/>
</clipPath>
</defs>
</svg>
