<svg width="28" height="26" viewBox="0 0 28 26" fill="none" xmlns="http://www.w3.org/2000/svg">
<g clip-path="url(#clip0_165_347)">
<path d="M27.6172 22.4809L22.1648 17.418C21.9187 17.1895 21.5852 17.0625 21.2352 17.0625H20.3438C21.8531 15.2699 22.75 13.0152 22.75 10.5625C22.75 4.72773 17.6586 0 11.375 0C5.09141 0 0 4.72773 0 10.5625C0 16.3973 5.09141 21.125 11.375 21.125C14.0164 21.125 16.4445 20.2922 18.375 18.8906V19.7184C18.375 20.0434 18.5117 20.3531 18.7578 20.5816L24.2102 25.6445C24.7242 26.1219 25.5555 26.1219 26.0641 25.6445L27.6117 24.2074C28.1258 23.7301 28.1258 22.9582 27.6172 22.4809ZM11.375 17.0625C7.50859 17.0625 4.375 14.1578 4.375 10.5625C4.375 6.97227 7.50312 4.0625 11.375 4.0625C15.2414 4.0625 18.375 6.96719 18.375 10.5625C18.375 14.1527 15.2469 17.0625 11.375 17.0625Z" fill="white"/>
</g>
<defs>
<clipPath id="clip0_165_347">
<rect width="28" height="26" fill="white"/>
</clipPath>
</defs>
</svg>
