<svg width="29" height="29" viewBox="0 0 29 29" fill="none" xmlns="http://www.w3.org/2000/svg">
<path d="M14.5 0C6.525 0 0 6.525 0 14.5C0 22.475 6.525 29 14.5 29C22.475 29 29 22.475 29 14.5C29 6.525 22.475 0 14.5 0ZM14.5 4.35C16.965 4.35 18.85 6.235 18.85 8.7C18.85 11.165 16.965 13.05 14.5 13.05C12.035 13.05 10.15 11.165 10.15 8.7C10.15 6.235 12.035 4.35 14.5 4.35ZM14.5 24.94C10.875 24.94 7.685 23.0551 5.8 20.3C5.8 17.4 11.6 15.805 14.5 15.805C17.4 15.805 23.2 17.4 23.2 20.3C21.315 23.055 18.125 24.94 14.5 24.94Z" fill="white"/>
</svg>
