<svg width="15" height="15" viewBox="0 0 15 15" fill="none" xmlns="http://www.w3.org/2000/svg">
<g clip-path="url(#clip0_321_89)">
<path d="M14.524 7.29851C14.5075 9.07338 14.0577 10.4619 13.1221 11.6685C12.1176 12.9647 10.8094 13.7877 9.20879 14.1208C7.97243 14.3756 6.76918 14.2636 5.58801 13.8297C5.32584 13.7317 5.06918 13.6169 4.82356 13.4798C4.74905 13.4378 4.68558 13.4322 4.60278 13.4602C3.48509 13.8269 2.36463 14.1908 1.24418 14.552C1.1945 14.5688 1.12827 14.6163 1.08963 14.58C1.04548 14.5352 1.10067 14.468 1.11723 14.4148C1.34077 13.7401 1.56431 13.0626 1.79061 12.388C1.9286 11.9764 2.06106 11.5677 2.20457 11.159C2.24321 11.0526 2.22941 10.9714 2.17145 10.8734C1.8872 10.3807 1.67746 9.85443 1.52843 9.30294C1.2497 8.26713 1.21934 7.22012 1.43736 6.17312C1.6747 5.03093 2.17145 4.01192 2.9359 3.13288C3.86041 2.06908 5.00019 1.36641 6.35522 1.02767C7.21902 0.812114 8.0911 0.77852 8.96869 0.924093C10.1167 1.11446 11.1516 1.57637 12.0541 2.32103C12.9924 3.09649 13.6768 4.05951 14.1073 5.21569C14.3447 5.83998 14.5323 6.86179 14.524 7.29851ZM2.77308 12.8891C3.45749 12.6651 4.11155 12.4524 4.76009 12.2368C4.84564 12.2088 4.91463 12.2144 4.98915 12.2648C5.23752 12.4328 5.50522 12.5671 5.78119 12.6847C6.67811 13.071 7.6109 13.211 8.57405 13.085C9.75522 12.9311 10.7929 12.4496 11.665 11.6125C12.7633 10.5571 13.3512 9.26374 13.4036 7.73523C13.4533 6.2375 12.9786 4.92175 11.9878 3.80476C11.0468 2.74375 9.86561 2.13907 8.47194 1.9879C7.26041 1.85632 6.12616 2.12227 5.07746 2.76055C4.18054 3.30925 3.49337 4.05671 3.01593 5.00013C2.48882 6.03874 2.30944 7.14174 2.46123 8.29792C2.57437 9.17136 2.88347 9.97481 3.38022 10.6971C3.43541 10.7783 3.45197 10.8454 3.41885 10.9406C3.31674 11.2262 3.22567 11.5145 3.12908 11.8001C3.01317 12.1528 2.90002 12.5055 2.77308 12.8891Z" fill="black"/>
<path d="M4.60555 5.97998C4.61935 5.3137 4.85117 4.81819 5.28996 4.42347C5.43071 4.29469 5.60457 4.2387 5.80052 4.26669C5.88331 4.27789 5.9661 4.28629 6.04889 4.28069C6.20344 4.27229 6.30831 4.34788 6.36074 4.48505C6.54565 4.97216 6.72503 5.45927 6.90441 5.94918C6.96513 6.11715 6.86026 6.24873 6.77194 6.3691C6.66983 6.51188 6.54565 6.63785 6.42422 6.76383C6.30003 6.89261 6.28347 6.96539 6.36902 7.12216C6.86854 8.04319 7.56951 8.75146 8.52162 9.18818C8.55474 9.20218 8.58785 9.22177 8.62097 9.23857C8.74792 9.29736 8.86107 9.28336 8.95766 9.17138C9.13428 8.96142 9.32746 8.76826 9.49029 8.5471C9.59792 8.40152 9.67243 8.37633 9.83526 8.44912C10.321 8.66188 10.7763 8.93063 11.24 9.19098C11.3255 9.23857 11.3559 9.31135 11.3531 9.41214C11.3283 10.238 10.8619 10.6691 10.0422 10.8595C9.64483 10.9518 9.27779 10.8511 8.9135 10.7167C8.14905 10.4367 7.4122 10.1064 6.79402 9.55211C6.30279 9.10979 5.86951 8.61708 5.50246 8.06559C5.22097 7.64007 4.92844 7.22294 4.76561 6.72744C4.67178 6.46429 4.60279 6.19554 4.60555 5.97998Z" fill="black"/>
</g>
<defs>
<clipPath id="clip0_321_89">
<rect width="14.1299" height="14.3333" fill="white" transform="translate(0.714294 0.529419)"/>
</clipPath>
</defs>
</svg>
